<svg xmlns="http://www.w3.org/2000/svg" xmlns:xlink="http://www.w3.org/1999/xlink" width="600" height="400" viewBox="0 0 2400 1600">
<defs>
  <clipPath id="clip720">
    <rect x="0" y="0" width="2400" height="1600"></rect>
  </clipPath>
</defs>
<path clip-path="url(#clip720)" d="M0 1600 L2400 1600 L2400 0 L0 0  Z" fill="#ffffff" fill-rule="evenodd" fill-opacity="1"></path>
<defs>
  <clipPath id="clip721">
    <rect x="480" y="0" width="1681" height="1600"></rect>
  </clipPath>
</defs>
<defs>
  <clipPath id="clip722">
    <rect x="328" y="47" width="2025" height="1428"></rect>
  </clipPath>
</defs>
<path clip-path="url(#clip722)" d="M385.97 1433.78 L385.97 1433.78 L385.97 1433.78 L385.97 1433.78 L385.97 1433.78 L385.97 1433.78 L385.97 1433.78  Z" fill="#ffffff" fill-rule="evenodd" fill-opacity="1"></path>
<polyline clip-path="url(#clip722)" style="stroke:#000000; stroke-linecap:round; stroke-linejoin:round; stroke-width:2; stroke-opacity:0.1; fill:none" points="798.224,1198.65 1210.14,841.919 1210.14,128.459 "></polyline>
<polyline clip-path="url(#clip722)" style="stroke:#000000; stroke-linecap:round; stroke-linejoin:round; stroke-width:2; stroke-opacity:0.1; fill:none" points="981.242,1251.48 1393.16,894.752 1393.16,181.292 "></polyline>
<polyline clip-path="url(#clip722)" style="stroke:#000000; stroke-linecap:round; stroke-linejoin:round; stroke-width:2; stroke-opacity:0.1; fill:none" points="1164.26,1304.32 1576.18,947.585 1576.18,234.125 "></polyline>
<polyline clip-path="url(#clip722)" style="stroke:#000000; stroke-linecap:round; stroke-linejoin:round; stroke-width:2; stroke-opacity:0.1; fill:none" points="1347.28,1357.15 1759.19,1000.42 1759.19,286.957 "></polyline>
<polyline clip-path="url(#clip720)" style="stroke:#000000; stroke-linecap:round; stroke-linejoin:round; stroke-width:4; stroke-opacity:1; fill:none" points="778.032,1192.82 1491.49,1398.78 "></polyline>
<polyline clip-path="url(#clip720)" style="stroke:#000000; stroke-linecap:round; stroke-linejoin:round; stroke-width:4; stroke-opacity:1; fill:none" points="798.224,1198.65 803.167,1194.37 "></polyline>
<polyline clip-path="url(#clip720)" style="stroke:#000000; stroke-linecap:round; stroke-linejoin:round; stroke-width:4; stroke-opacity:1; fill:none" points="981.242,1251.48 986.185,1247.2 "></polyline>
<polyline clip-path="url(#clip720)" style="stroke:#000000; stroke-linecap:round; stroke-linejoin:round; stroke-width:4; stroke-opacity:1; fill:none" points="1164.26,1304.32 1169.2,1300.03 "></polyline>
<polyline clip-path="url(#clip720)" style="stroke:#000000; stroke-linecap:round; stroke-linejoin:round; stroke-width:4; stroke-opacity:1; fill:none" points="1347.28,1357.15 1352.22,1352.87 "></polyline>
<path clip-path="url(#clip720)" d="M798.224 1239.17 Q794.613 1239.17 792.785 1242.73 Q790.979 1246.27 790.979 1253.4 Q790.979 1260.51 792.785 1264.08 Q794.613 1267.62 798.224 1267.62 Q801.859 1267.62 803.664 1264.08 Q805.493 1260.51 805.493 1253.4 Q805.493 1246.27 803.664 1242.73 Q801.859 1239.17 798.224 1239.17 M798.224 1235.46 Q804.034 1235.46 807.09 1240.07 Q810.169 1244.65 810.169 1253.4 Q810.169 1262.13 807.09 1266.74 Q804.034 1271.32 798.224 1271.32 Q792.414 1271.32 789.335 1266.74 Q786.28 1262.13 786.28 1253.4 Q786.28 1244.65 789.335 1240.07 Q792.414 1235.46 798.224 1235.46 Z" fill="#000000" fill-rule="evenodd" fill-opacity="1"></path><path clip-path="url(#clip720)" d="M880.632 1335.21 L896.951 1335.21 L896.951 1339.14 L875.007 1339.14 L875.007 1335.21 Q877.669 1332.45 882.252 1327.82 Q886.858 1323.17 888.039 1321.83 Q890.284 1319.3 891.164 1317.57 Q892.067 1315.81 892.067 1314.12 Q892.067 1311.36 890.122 1309.63 Q888.201 1307.89 885.099 1307.89 Q882.9 1307.89 880.446 1308.66 Q878.016 1309.42 875.238 1310.97 L875.238 1306.25 Q878.062 1305.11 880.516 1304.54 Q882.97 1303.96 885.007 1303.96 Q890.377 1303.96 893.571 1306.64 Q896.766 1309.33 896.766 1313.82 Q896.766 1315.95 895.956 1317.87 Q895.169 1319.77 893.062 1322.36 Q892.483 1323.03 889.382 1326.25 Q886.28 1329.44 880.632 1335.21 Z" fill="#000000" fill-rule="evenodd" fill-opacity="1"></path><path clip-path="url(#clip720)" d="M906.766 1333.26 L911.65 1333.26 L911.65 1339.14 L906.766 1339.14 L906.766 1333.26 Z" fill="#000000" fill-rule="evenodd" fill-opacity="1"></path><path clip-path="url(#clip720)" d="M931.835 1307.66 Q928.224 1307.66 926.395 1311.23 Q924.59 1314.77 924.59 1321.9 Q924.59 1329 926.395 1332.57 Q928.224 1336.11 931.835 1336.11 Q935.469 1336.11 937.275 1332.57 Q939.104 1329 939.104 1321.9 Q939.104 1314.77 937.275 1311.23 Q935.469 1307.66 931.835 1307.66 M931.835 1303.96 Q937.645 1303.96 940.701 1308.56 Q943.779 1313.15 943.779 1321.9 Q943.779 1330.62 940.701 1335.23 Q937.645 1339.81 931.835 1339.81 Q926.025 1339.81 922.946 1335.23 Q919.891 1330.62 919.891 1321.9 Q919.891 1313.15 922.946 1308.56 Q926.025 1303.96 931.835 1303.96 Z" fill="#000000" fill-rule="evenodd" fill-opacity="1"></path><path clip-path="url(#clip720)" d="M980.168 1313.68 L969.59 1324.3 L980.168 1334.88 L977.414 1337.68 L966.789 1327.06 L956.164 1337.68 L953.432 1334.88 L963.988 1324.3 L953.432 1313.68 L956.164 1310.88 L966.789 1321.5 L977.414 1310.88 L980.168 1313.68 Z" fill="#000000" fill-rule="evenodd" fill-opacity="1"></path><path clip-path="url(#clip720)" d="M992.529 1335.21 L1000.17 1335.21 L1000.17 1308.84 L991.858 1310.51 L991.858 1306.25 L1000.12 1304.58 L1004.8 1304.58 L1004.8 1335.21 L1012.44 1335.21 L1012.44 1339.14 L992.529 1339.14 L992.529 1335.21 Z" fill="#000000" fill-rule="evenodd" fill-opacity="1"></path><path clip-path="url(#clip720)" d="M1031.88 1307.66 Q1028.27 1307.66 1026.44 1311.23 Q1024.64 1314.77 1024.64 1321.9 Q1024.64 1329 1026.44 1332.57 Q1028.27 1336.11 1031.88 1336.11 Q1035.52 1336.11 1037.32 1332.57 Q1039.15 1329 1039.15 1321.9 Q1039.15 1314.77 1037.32 1311.23 Q1035.52 1307.66 1031.88 1307.66 M1031.88 1303.96 Q1037.69 1303.96 1040.75 1308.56 Q1043.83 1313.15 1043.83 1321.9 Q1043.83 1330.62 1040.75 1335.23 Q1037.69 1339.81 1031.88 1339.81 Q1026.07 1339.81 1022.99 1335.23 Q1019.94 1330.62 1019.94 1321.9 Q1019.94 1313.15 1022.99 1308.56 Q1026.07 1303.96 1031.88 1303.96 Z" fill="#000000" fill-rule="evenodd" fill-opacity="1"></path><path clip-path="url(#clip720)" d="M1056.52 1296.59 Q1059.25 1297.17 1060.77 1299.02 Q1062.31 1300.86 1062.31 1303.57 Q1062.31 1307.73 1059.45 1310 Q1056.6 1312.28 1051.33 1312.28 Q1049.56 1312.28 1047.68 1311.92 Q1045.82 1311.58 1043.83 1310.89 L1043.83 1307.22 Q1045.41 1308.14 1047.29 1308.61 Q1049.17 1309.08 1051.22 1309.08 Q1054.79 1309.08 1056.65 1307.67 Q1058.53 1306.26 1058.53 1303.57 Q1058.53 1301.09 1056.78 1299.69 Q1055.05 1298.28 1051.95 1298.28 L1048.68 1298.28 L1048.68 1295.16 L1052.1 1295.16 Q1054.9 1295.16 1056.39 1294.05 Q1057.87 1292.92 1057.87 1290.82 Q1057.87 1288.65 1056.33 1287.51 Q1054.81 1286.34 1051.95 1286.34 Q1050.39 1286.34 1048.6 1286.68 Q1046.82 1287.02 1044.67 1287.73 L1044.67 1284.35 Q1046.83 1283.75 1048.72 1283.44 Q1050.61 1283.14 1052.29 1283.14 Q1056.61 1283.14 1059.13 1285.12 Q1061.65 1287.07 1061.65 1290.42 Q1061.65 1292.75 1060.32 1294.37 Q1058.98 1295.97 1056.52 1296.59 Z" fill="#000000" fill-rule="evenodd" fill-opacity="1"></path><path clip-path="url(#clip720)" d="M1078.11 1296.18 Q1075.55 1296.18 1074.05 1297.93 Q1072.56 1299.68 1072.56 1302.72 Q1072.56 1305.75 1074.05 1307.52 Q1075.55 1309.27 1078.11 1309.27 Q1080.67 1309.27 1082.16 1307.52 Q1083.66 1305.75 1083.66 1302.72 Q1083.66 1299.68 1082.16 1297.93 Q1080.67 1296.18 1078.11 1296.18 M1085.65 1284.27 L1085.65 1287.73 Q1084.22 1287.06 1082.76 1286.7 Q1081.31 1286.34 1079.88 1286.34 Q1076.12 1286.34 1074.12 1288.88 Q1072.15 1291.42 1071.87 1296.55 Q1072.98 1294.92 1074.65 1294.05 Q1076.33 1293.17 1078.34 1293.17 Q1082.57 1293.17 1085.01 1295.75 Q1087.48 1298.3 1087.48 1302.72 Q1087.48 1307.05 1084.92 1309.66 Q1082.36 1312.28 1078.11 1312.28 Q1073.24 1312.28 1070.66 1308.55 Q1068.09 1304.81 1068.09 1297.72 Q1068.09 1291.06 1071.25 1287.11 Q1074.41 1283.14 1079.73 1283.14 Q1081.16 1283.14 1082.61 1283.43 Q1084.07 1283.71 1085.65 1284.27 Z" fill="#000000" fill-rule="evenodd" fill-opacity="1"></path><path clip-path="url(#clip720)" d="M1073.05 1361.49 L1061.24 1379.94 L1073.05 1379.94 L1073.05 1361.49 M1071.82 1357.42 L1077.7 1357.42 L1077.7 1379.94 L1082.63 1379.94 L1082.63 1383.83 L1077.7 1383.83 L1077.7 1391.98 L1073.05 1391.98 L1073.05 1383.83 L1057.45 1383.83 L1057.45 1379.31 L1071.82 1357.42 Z" fill="#000000" fill-rule="evenodd" fill-opacity="1"></path><path clip-path="url(#clip720)" d="M1090.36 1386.1 L1095.25 1386.1 L1095.25 1391.98 L1090.36 1391.98 L1090.36 1386.1 Z" fill="#000000" fill-rule="evenodd" fill-opacity="1"></path><path clip-path="url(#clip720)" d="M1115.43 1360.49 Q1111.82 1360.49 1109.99 1364.06 Q1108.19 1367.6 1108.19 1374.73 Q1108.19 1381.84 1109.99 1385.4 Q1111.82 1388.94 1115.43 1388.94 Q1119.07 1388.94 1120.87 1385.4 Q1122.7 1381.84 1122.7 1374.73 Q1122.7 1367.6 1120.87 1364.06 Q1119.07 1360.49 1115.43 1360.49 M1115.43 1356.79 Q1121.24 1356.79 1124.3 1361.4 Q1127.38 1365.98 1127.38 1374.73 Q1127.38 1383.46 1124.3 1388.06 Q1121.24 1392.65 1115.43 1392.65 Q1109.62 1392.65 1106.54 1388.06 Q1103.49 1383.46 1103.49 1374.73 Q1103.49 1365.98 1106.54 1361.4 Q1109.62 1356.79 1115.43 1356.79 Z" fill="#000000" fill-rule="evenodd" fill-opacity="1"></path><path clip-path="url(#clip720)" d="M1163.76 1366.51 L1153.19 1377.14 L1163.76 1387.72 L1161.01 1390.52 L1150.39 1379.89 L1139.76 1390.52 L1137.03 1387.72 L1147.58 1377.14 L1137.03 1366.51 L1139.76 1363.71 L1150.39 1374.34 L1161.01 1363.71 L1163.76 1366.51 Z" fill="#000000" fill-rule="evenodd" fill-opacity="1"></path><path clip-path="url(#clip720)" d="M1176.13 1388.04 L1183.76 1388.04 L1183.76 1361.67 L1175.45 1363.34 L1175.45 1359.08 L1183.72 1357.42 L1188.39 1357.42 L1188.39 1388.04 L1196.03 1388.04 L1196.03 1391.98 L1176.13 1391.98 L1176.13 1388.04 Z" fill="#000000" fill-rule="evenodd" fill-opacity="1"></path><path clip-path="url(#clip720)" d="M1215.48 1360.49 Q1211.87 1360.49 1210.04 1364.06 Q1208.23 1367.6 1208.23 1374.73 Q1208.23 1381.84 1210.04 1385.4 Q1211.87 1388.94 1215.48 1388.94 Q1219.11 1388.94 1220.92 1385.4 Q1222.75 1381.84 1222.75 1374.73 Q1222.75 1367.6 1220.92 1364.06 Q1219.11 1360.49 1215.48 1360.49 M1215.48 1356.79 Q1221.29 1356.79 1224.34 1361.4 Q1227.42 1365.98 1227.42 1374.73 Q1227.42 1383.46 1224.34 1388.06 Q1221.29 1392.65 1215.48 1392.65 Q1209.67 1392.65 1206.59 1388.06 Q1203.53 1383.46 1203.53 1374.73 Q1203.53 1365.98 1206.59 1361.4 Q1209.67 1356.79 1215.48 1356.79 Z" fill="#000000" fill-rule="evenodd" fill-opacity="1"></path><path clip-path="url(#clip720)" d="M1240.12 1349.42 Q1242.84 1350.01 1244.37 1351.85 Q1245.91 1353.69 1245.91 1356.4 Q1245.91 1360.56 1243.05 1362.83 Q1240.19 1365.11 1234.93 1365.11 Q1233.16 1365.11 1231.28 1364.75 Q1229.42 1364.41 1227.42 1363.72 L1227.42 1360.05 Q1229 1360.97 1230.88 1361.44 Q1232.76 1361.91 1234.81 1361.91 Q1238.39 1361.91 1240.25 1360.5 Q1242.13 1359.09 1242.13 1356.4 Q1242.13 1353.92 1240.38 1352.53 Q1238.65 1351.12 1235.55 1351.12 L1232.27 1351.12 L1232.27 1347.99 L1235.7 1347.99 Q1238.5 1347.99 1239.99 1346.89 Q1241.47 1345.76 1241.47 1343.65 Q1241.47 1341.49 1239.93 1340.34 Q1238.41 1339.17 1235.55 1339.17 Q1233.99 1339.17 1232.2 1339.51 Q1230.41 1339.85 1228.27 1340.57 L1228.27 1337.18 Q1230.43 1336.58 1232.31 1336.28 Q1234.21 1335.98 1235.89 1335.98 Q1240.21 1335.98 1242.73 1337.95 Q1245.25 1339.91 1245.25 1343.26 Q1245.25 1345.59 1243.92 1347.21 Q1242.58 1348.8 1240.12 1349.42 Z" fill="#000000" fill-rule="evenodd" fill-opacity="1"></path><path clip-path="url(#clip720)" d="M1261.71 1349.01 Q1259.15 1349.01 1257.65 1350.76 Q1256.16 1352.51 1256.16 1355.56 Q1256.16 1358.58 1257.65 1360.35 Q1259.15 1362.1 1261.71 1362.1 Q1264.27 1362.1 1265.75 1360.35 Q1267.26 1358.58 1267.26 1355.56 Q1267.26 1352.51 1265.75 1350.76 Q1264.27 1349.01 1261.71 1349.01 M1269.25 1337.11 L1269.25 1340.57 Q1267.82 1339.89 1266.35 1339.53 Q1264.91 1339.17 1263.48 1339.17 Q1259.71 1339.17 1257.72 1341.71 Q1255.75 1344.25 1255.46 1349.39 Q1256.57 1347.75 1258.25 1346.89 Q1259.92 1346 1261.93 1346 Q1266.17 1346 1268.61 1348.58 Q1271.07 1351.14 1271.07 1355.56 Q1271.07 1359.88 1268.52 1362.5 Q1265.96 1365.11 1261.71 1365.11 Q1256.84 1365.11 1254.26 1361.39 Q1251.68 1357.64 1251.68 1350.55 Q1251.68 1343.89 1254.84 1339.95 Q1258 1335.98 1263.33 1335.98 Q1264.76 1335.98 1266.2 1336.26 Q1267.67 1336.54 1269.25 1337.11 Z" fill="#000000" fill-rule="evenodd" fill-opacity="1"></path><path clip-path="url(#clip720)" d="M1253.3 1425.66 Q1250.15 1425.66 1248.3 1427.82 Q1246.47 1429.97 1246.47 1433.72 Q1246.47 1437.45 1248.3 1439.62 Q1250.15 1441.78 1253.3 1441.78 Q1256.45 1441.78 1258.28 1439.62 Q1260.13 1437.45 1260.13 1433.72 Q1260.13 1429.97 1258.28 1427.82 Q1256.45 1425.66 1253.3 1425.66 M1262.58 1411.01 L1262.58 1415.27 Q1260.82 1414.44 1259.02 1414 Q1257.23 1413.56 1255.48 1413.56 Q1250.85 1413.56 1248.39 1416.68 Q1245.96 1419.81 1245.61 1426.13 Q1246.98 1424.11 1249.04 1423.05 Q1251.1 1421.96 1253.58 1421.96 Q1258.79 1421.96 1261.79 1425.13 Q1264.83 1428.28 1264.83 1433.72 Q1264.83 1439.04 1261.68 1442.26 Q1258.53 1445.48 1253.3 1445.48 Q1247.3 1445.48 1244.13 1440.9 Q1240.96 1436.29 1240.96 1427.56 Q1240.96 1419.37 1244.85 1414.51 Q1248.74 1409.62 1255.29 1409.62 Q1257.05 1409.62 1258.83 1409.97 Q1260.64 1410.32 1262.58 1411.01 Z" fill="#000000" fill-rule="evenodd" fill-opacity="1"></path><path clip-path="url(#clip720)" d="M1272.88 1438.93 L1277.77 1438.93 L1277.77 1444.81 L1272.88 1444.81 L1272.88 1438.93 Z" fill="#000000" fill-rule="evenodd" fill-opacity="1"></path><path clip-path="url(#clip720)" d="M1297.95 1413.33 Q1294.34 1413.33 1292.51 1416.89 Q1290.71 1420.43 1290.71 1427.56 Q1290.71 1434.67 1292.51 1438.23 Q1294.34 1441.78 1297.95 1441.78 Q1301.59 1441.78 1303.39 1438.23 Q1305.22 1434.67 1305.22 1427.56 Q1305.22 1420.43 1303.39 1416.89 Q1301.59 1413.33 1297.95 1413.33 M1297.95 1409.62 Q1303.76 1409.62 1306.82 1414.23 Q1309.9 1418.81 1309.9 1427.56 Q1309.9 1436.29 1306.82 1440.9 Q1303.76 1445.48 1297.95 1445.48 Q1292.14 1445.48 1289.06 1440.9 Q1286.01 1436.29 1286.01 1427.56 Q1286.01 1418.81 1289.06 1414.23 Q1292.14 1409.62 1297.95 1409.62 Z" fill="#000000" fill-rule="evenodd" fill-opacity="1"></path><path clip-path="url(#clip720)" d="M1346.29 1419.34 L1335.71 1429.97 L1346.29 1440.55 L1343.53 1443.35 L1332.91 1432.72 L1322.28 1443.35 L1319.55 1440.55 L1330.1 1429.97 L1319.55 1419.34 L1322.28 1416.54 L1332.91 1427.17 L1343.53 1416.54 L1346.29 1419.34 Z" fill="#000000" fill-rule="evenodd" fill-opacity="1"></path><path clip-path="url(#clip720)" d="M1358.65 1440.87 L1366.29 1440.87 L1366.29 1414.51 L1357.98 1416.17 L1357.98 1411.91 L1366.24 1410.25 L1370.91 1410.25 L1370.91 1440.87 L1378.55 1440.87 L1378.55 1444.81 L1358.65 1444.81 L1358.65 1440.87 Z" fill="#000000" fill-rule="evenodd" fill-opacity="1"></path><path clip-path="url(#clip720)" d="M1398 1413.33 Q1394.39 1413.33 1392.56 1416.89 Q1390.75 1420.43 1390.75 1427.56 Q1390.75 1434.67 1392.56 1438.23 Q1394.39 1441.78 1398 1441.78 Q1401.63 1441.78 1403.44 1438.23 Q1405.27 1434.67 1405.27 1427.56 Q1405.27 1420.43 1403.44 1416.89 Q1401.63 1413.33 1398 1413.33 M1398 1409.62 Q1403.81 1409.62 1406.86 1414.23 Q1409.94 1418.81 1409.94 1427.56 Q1409.94 1436.29 1406.86 1440.9 Q1403.81 1445.48 1398 1445.48 Q1392.19 1445.48 1389.11 1440.9 Q1386.05 1436.29 1386.05 1427.56 Q1386.05 1418.81 1389.11 1414.23 Q1392.19 1409.62 1398 1409.62 Z" fill="#000000" fill-rule="evenodd" fill-opacity="1"></path><path clip-path="url(#clip720)" d="M1422.64 1402.26 Q1425.36 1402.84 1426.89 1404.68 Q1428.43 1406.53 1428.43 1409.23 Q1428.43 1413.39 1425.57 1415.67 Q1422.71 1417.94 1417.45 1417.94 Q1415.68 1417.94 1413.8 1417.59 Q1411.94 1417.25 1409.94 1416.55 L1409.94 1412.88 Q1411.52 1413.81 1413.4 1414.28 Q1415.28 1414.75 1417.33 1414.75 Q1420.91 1414.75 1422.77 1413.33 Q1424.65 1411.92 1424.65 1409.23 Q1424.65 1406.75 1422.9 1405.36 Q1421.17 1403.95 1418.07 1403.95 L1414.79 1403.95 L1414.79 1400.83 L1418.22 1400.83 Q1421.02 1400.83 1422.51 1399.72 Q1423.99 1398.59 1423.99 1396.48 Q1423.99 1394.32 1422.45 1393.17 Q1420.93 1392.01 1418.07 1392.01 Q1416.51 1392.01 1414.72 1392.35 Q1412.93 1392.68 1410.79 1393.4 L1410.79 1390.01 Q1412.95 1389.41 1414.83 1389.11 Q1416.73 1388.81 1418.41 1388.81 Q1422.73 1388.81 1425.25 1390.78 Q1427.77 1392.74 1427.77 1396.09 Q1427.77 1398.42 1426.44 1400.04 Q1425.1 1401.64 1422.64 1402.26 Z" fill="#000000" fill-rule="evenodd" fill-opacity="1"></path><path clip-path="url(#clip720)" d="M1444.23 1401.84 Q1441.67 1401.84 1440.17 1403.59 Q1438.68 1405.34 1438.68 1408.39 Q1438.68 1411.42 1440.17 1413.18 Q1441.67 1414.93 1444.23 1414.93 Q1446.79 1414.93 1448.27 1413.18 Q1449.78 1411.42 1449.78 1408.39 Q1449.78 1405.34 1448.27 1403.59 Q1446.79 1401.84 1444.23 1401.84 M1451.77 1389.94 L1451.77 1393.4 Q1450.34 1392.72 1448.87 1392.36 Q1447.43 1392.01 1446 1392.01 Q1442.24 1392.01 1440.24 1394.55 Q1438.27 1397.08 1437.98 1402.22 Q1439.09 1400.58 1440.77 1399.72 Q1442.44 1398.83 1444.45 1398.83 Q1448.69 1398.83 1451.13 1401.41 Q1453.6 1403.97 1453.6 1408.39 Q1453.6 1412.71 1451.04 1415.33 Q1448.48 1417.94 1444.23 1417.94 Q1439.36 1417.94 1436.78 1414.22 Q1434.2 1410.48 1434.2 1403.39 Q1434.2 1396.73 1437.36 1392.78 Q1440.52 1388.81 1445.85 1388.81 Q1447.28 1388.81 1448.72 1389.09 Q1450.19 1389.37 1451.77 1389.94 Z" fill="#000000" fill-rule="evenodd" fill-opacity="1"></path><polyline clip-path="url(#clip722)" style="stroke:#000000; stroke-linecap:round; stroke-linejoin:round; stroke-width:2; stroke-opacity:0.1; fill:none" points="1503.15,1388.68 789.69,1182.72 789.69,469.264 "></polyline>
<polyline clip-path="url(#clip722)" style="stroke:#000000; stroke-linecap:round; stroke-linejoin:round; stroke-width:2; stroke-opacity:0.1; fill:none" points="1571.8,1329.23 858.338,1123.27 858.338,409.814 "></polyline>
<polyline clip-path="url(#clip722)" style="stroke:#000000; stroke-linecap:round; stroke-linejoin:round; stroke-width:2; stroke-opacity:0.1; fill:none" points="1640.45,1269.78 926.985,1063.82 926.985,350.363 "></polyline>
<polyline clip-path="url(#clip722)" style="stroke:#000000; stroke-linecap:round; stroke-linejoin:round; stroke-width:2; stroke-opacity:0.1; fill:none" points="1709.09,1210.33 995.633,1004.37 995.633,290.912 "></polyline>
<polyline clip-path="url(#clip722)" style="stroke:#000000; stroke-linecap:round; stroke-linejoin:round; stroke-width:2; stroke-opacity:0.1; fill:none" points="1777.74,1150.88 1064.28,944.922 1064.28,231.462 "></polyline>
<polyline clip-path="url(#clip722)" style="stroke:#000000; stroke-linecap:round; stroke-linejoin:round; stroke-width:2; stroke-opacity:0.1; fill:none" points="1846.39,1091.43 1132.93,885.472 1132.93,172.011 "></polyline>
<polyline clip-path="url(#clip720)" style="stroke:#000000; stroke-linecap:round; stroke-linejoin:round; stroke-width:4; stroke-opacity:1; fill:none" points="1491.49,1398.78 1903.41,1042.05 "></polyline>
<polyline clip-path="url(#clip720)" style="stroke:#000000; stroke-linecap:round; stroke-linejoin:round; stroke-width:4; stroke-opacity:1; fill:none" points="1503.15,1388.68 1494.59,1386.21 "></polyline>
<polyline clip-path="url(#clip720)" style="stroke:#000000; stroke-linecap:round; stroke-linejoin:round; stroke-width:4; stroke-opacity:1; fill:none" points="1571.8,1329.23 1563.24,1326.76 "></polyline>
<polyline clip-path="url(#clip720)" style="stroke:#000000; stroke-linecap:round; stroke-linejoin:round; stroke-width:4; stroke-opacity:1; fill:none" points="1640.45,1269.78 1631.88,1267.31 "></polyline>
<polyline clip-path="url(#clip720)" style="stroke:#000000; stroke-linecap:round; stroke-linejoin:round; stroke-width:4; stroke-opacity:1; fill:none" points="1709.09,1210.33 1700.53,1207.86 "></polyline>
<polyline clip-path="url(#clip720)" style="stroke:#000000; stroke-linecap:round; stroke-linejoin:round; stroke-width:4; stroke-opacity:1; fill:none" points="1777.74,1150.88 1769.18,1148.41 "></polyline>
<polyline clip-path="url(#clip720)" style="stroke:#000000; stroke-linecap:round; stroke-linejoin:round; stroke-width:4; stroke-opacity:1; fill:none" points="1846.39,1091.43 1837.83,1088.96 "></polyline>
<path clip-path="url(#clip720)" d="M1503.15 1429.2 Q1499.54 1429.2 1497.71 1432.77 Q1495.91 1436.31 1495.91 1443.44 Q1495.91 1450.54 1497.71 1454.11 Q1499.54 1457.65 1503.15 1457.65 Q1506.78 1457.65 1508.59 1454.11 Q1510.42 1450.54 1510.42 1443.44 Q1510.42 1436.31 1508.59 1432.77 Q1506.78 1429.2 1503.15 1429.2 M1503.15 1425.5 Q1508.96 1425.5 1512.02 1430.1 Q1515.09 1434.69 1515.09 1443.44 Q1515.09 1452.16 1512.02 1456.77 Q1508.96 1461.35 1503.15 1461.35 Q1497.34 1461.35 1494.26 1456.77 Q1491.21 1452.16 1491.21 1443.44 Q1491.21 1434.69 1494.26 1430.1 Q1497.34 1425.5 1503.15 1425.5 Z" fill="#000000" fill-rule="evenodd" fill-opacity="1"></path><path clip-path="url(#clip720)" d="M1452.5 1382.33 L1470.86 1382.33 L1470.86 1386.27 L1456.78 1386.27 L1456.78 1394.74 Q1457.8 1394.39 1458.82 1394.23 Q1459.84 1394.04 1460.86 1394.04 Q1466.65 1394.04 1470.03 1397.22 Q1473.41 1400.39 1473.41 1405.8 Q1473.41 1411.38 1469.93 1414.48 Q1466.46 1417.56 1460.14 1417.56 Q1457.97 1417.56 1455.7 1417.19 Q1453.45 1416.82 1451.04 1416.08 L1451.04 1411.38 Q1453.13 1412.52 1455.35 1413.07 Q1457.57 1413.63 1460.05 1413.63 Q1464.05 1413.63 1466.39 1411.52 Q1468.73 1409.42 1468.73 1405.8 Q1468.73 1402.19 1466.39 1400.09 Q1464.05 1397.98 1460.05 1397.98 Q1458.17 1397.98 1456.3 1398.4 Q1454.45 1398.81 1452.5 1399.69 L1452.5 1382.33 Z" fill="#000000" fill-rule="evenodd" fill-opacity="1"></path><path clip-path="url(#clip720)" d="M1482.62 1411.01 L1487.5 1411.01 L1487.5 1416.89 L1482.62 1416.89 L1482.62 1411.01 Z" fill="#000000" fill-rule="evenodd" fill-opacity="1"></path><path clip-path="url(#clip720)" d="M1507.69 1385.41 Q1504.08 1385.41 1502.25 1388.98 Q1500.44 1392.52 1500.44 1399.65 Q1500.44 1406.75 1502.25 1410.32 Q1504.08 1413.86 1507.69 1413.86 Q1511.32 1413.86 1513.13 1410.32 Q1514.96 1406.75 1514.96 1399.65 Q1514.96 1392.52 1513.13 1388.98 Q1511.32 1385.41 1507.69 1385.41 M1507.69 1381.71 Q1513.5 1381.71 1516.55 1386.31 Q1519.63 1390.9 1519.63 1399.65 Q1519.63 1408.37 1516.55 1412.98 Q1513.5 1417.56 1507.69 1417.56 Q1501.88 1417.56 1498.8 1412.98 Q1495.74 1408.37 1495.74 1399.65 Q1495.74 1390.9 1498.8 1386.31 Q1501.88 1381.71 1507.69 1381.71 Z" fill="#000000" fill-rule="evenodd" fill-opacity="1"></path><path clip-path="url(#clip720)" d="M1537.85 1385.41 Q1534.24 1385.41 1532.41 1388.98 Q1530.6 1392.52 1530.6 1399.65 Q1530.6 1406.75 1532.41 1410.32 Q1534.24 1413.86 1537.85 1413.86 Q1541.48 1413.86 1543.29 1410.32 Q1545.12 1406.75 1545.12 1399.65 Q1545.12 1392.52 1543.29 1388.98 Q1541.48 1385.41 1537.85 1385.41 M1537.85 1381.71 Q1543.66 1381.71 1546.71 1386.31 Q1549.79 1390.9 1549.79 1399.65 Q1549.79 1408.37 1546.71 1412.98 Q1543.66 1417.56 1537.85 1417.56 Q1532.04 1417.56 1528.96 1412.98 Q1525.9 1408.37 1525.9 1399.65 Q1525.9 1390.9 1528.96 1386.31 Q1532.04 1381.71 1537.85 1381.71 Z" fill="#000000" fill-rule="evenodd" fill-opacity="1"></path><path clip-path="url(#clip720)" d="M1586.18 1391.43 L1575.6 1402.05 L1586.18 1412.63 L1583.43 1415.43 L1572.8 1404.81 L1562.18 1415.43 L1559.45 1412.63 L1570 1402.05 L1559.45 1391.43 L1562.18 1388.63 L1572.8 1399.25 L1583.43 1388.63 L1586.18 1391.43 Z" fill="#000000" fill-rule="evenodd" fill-opacity="1"></path><path clip-path="url(#clip720)" d="M1598.54 1412.96 L1606.18 1412.96 L1606.18 1386.59 L1597.87 1388.26 L1597.87 1384 L1606.14 1382.33 L1610.81 1382.33 L1610.81 1412.96 L1618.45 1412.96 L1618.45 1416.89 L1598.54 1416.89 L1598.54 1412.96 Z" fill="#000000" fill-rule="evenodd" fill-opacity="1"></path><path clip-path="url(#clip720)" d="M1637.89 1385.41 Q1634.28 1385.41 1632.46 1388.98 Q1630.65 1392.52 1630.65 1399.65 Q1630.65 1406.75 1632.46 1410.32 Q1634.28 1413.86 1637.89 1413.86 Q1641.53 1413.86 1643.33 1410.32 Q1645.16 1406.75 1645.16 1399.65 Q1645.16 1392.52 1643.33 1388.98 Q1641.53 1385.41 1637.89 1385.41 M1637.89 1381.71 Q1643.71 1381.71 1646.76 1386.31 Q1649.84 1390.9 1649.84 1399.65 Q1649.84 1408.37 1646.76 1412.98 Q1643.71 1417.56 1637.89 1417.56 Q1632.08 1417.56 1629.01 1412.98 Q1625.95 1408.37 1625.95 1399.65 Q1625.95 1390.9 1629.01 1386.31 Q1632.08 1381.71 1637.89 1381.71 Z" fill="#000000" fill-rule="evenodd" fill-opacity="1"></path><path clip-path="url(#clip720)" d="M1662.53 1374.34 Q1665.26 1374.92 1666.79 1376.77 Q1668.33 1378.61 1668.33 1381.32 Q1668.33 1385.48 1665.47 1387.75 Q1662.61 1390.03 1657.34 1390.03 Q1655.58 1390.03 1653.69 1389.67 Q1651.83 1389.33 1649.84 1388.64 L1649.84 1384.97 Q1651.42 1385.89 1653.3 1386.36 Q1655.18 1386.83 1657.23 1386.83 Q1660.8 1386.83 1662.67 1385.42 Q1664.55 1384.01 1664.55 1381.32 Q1664.55 1378.84 1662.8 1377.44 Q1661.07 1376.03 1657.96 1376.03 L1654.69 1376.03 L1654.69 1372.91 L1658.11 1372.91 Q1660.92 1372.91 1662.4 1371.8 Q1663.89 1370.67 1663.89 1368.57 Q1663.89 1366.4 1662.35 1365.26 Q1660.82 1364.09 1657.96 1364.09 Q1656.4 1364.09 1654.62 1364.43 Q1652.83 1364.77 1650.69 1365.48 L1650.69 1362.1 Q1652.85 1361.5 1654.73 1361.19 Q1656.63 1360.89 1658.3 1360.89 Q1662.63 1360.89 1665.15 1362.87 Q1667.67 1364.82 1667.67 1368.17 Q1667.67 1370.5 1666.33 1372.12 Q1665 1373.72 1662.53 1374.34 Z" fill="#000000" fill-rule="evenodd" fill-opacity="1"></path><path clip-path="url(#clip720)" d="M1675.57 1361.4 L1690.48 1361.4 L1690.48 1364.6 L1679.05 1364.6 L1679.05 1371.48 Q1679.88 1371.2 1680.7 1371.07 Q1681.53 1370.92 1682.36 1370.92 Q1687.06 1370.92 1689.81 1373.5 Q1692.55 1376.07 1692.55 1380.47 Q1692.55 1385.01 1689.73 1387.53 Q1686.91 1390.03 1681.77 1390.03 Q1680.01 1390.03 1678.16 1389.73 Q1676.34 1389.43 1674.38 1388.82 L1674.38 1385.01 Q1676.08 1385.93 1677.88 1386.38 Q1679.69 1386.83 1681.7 1386.83 Q1684.95 1386.83 1686.85 1385.12 Q1688.75 1383.41 1688.75 1380.47 Q1688.75 1377.54 1686.85 1375.83 Q1684.95 1374.12 1681.7 1374.12 Q1680.18 1374.12 1678.65 1374.45 Q1677.15 1374.79 1675.57 1375.51 L1675.57 1361.4 Z" fill="#000000" fill-rule="evenodd" fill-opacity="1"></path><path clip-path="url(#clip720)" d="M1520.67 1353.51 L1528.31 1353.51 L1528.31 1327.14 L1520 1328.81 L1520 1324.55 L1528.26 1322.88 L1532.94 1322.88 L1532.94 1353.51 L1540.58 1353.51 L1540.58 1357.44 L1520.67 1357.44 L1520.67 1353.51 Z" fill="#000000" fill-rule="evenodd" fill-opacity="1"></path><path clip-path="url(#clip720)" d="M1550.02 1351.56 L1554.9 1351.56 L1554.9 1357.44 L1550.02 1357.44 L1550.02 1351.56 Z" fill="#000000" fill-rule="evenodd" fill-opacity="1"></path><path clip-path="url(#clip720)" d="M1575.09 1325.96 Q1571.48 1325.96 1569.65 1329.52 Q1567.84 1333.07 1567.84 1340.2 Q1567.84 1347.3 1569.65 1350.87 Q1571.48 1354.41 1575.09 1354.41 Q1578.72 1354.41 1580.53 1350.87 Q1582.36 1347.3 1582.36 1340.2 Q1582.36 1333.07 1580.53 1329.52 Q1578.72 1325.96 1575.09 1325.96 M1575.09 1322.26 Q1580.9 1322.26 1583.95 1326.86 Q1587.03 1331.45 1587.03 1340.2 Q1587.03 1348.92 1583.95 1353.53 Q1580.9 1358.11 1575.09 1358.11 Q1569.28 1358.11 1566.2 1353.53 Q1563.14 1348.92 1563.14 1340.2 Q1563.14 1331.45 1566.2 1326.86 Q1569.28 1322.26 1575.09 1322.26 Z" fill="#000000" fill-rule="evenodd" fill-opacity="1"></path><path clip-path="url(#clip720)" d="M1605.25 1325.96 Q1601.64 1325.96 1599.81 1329.52 Q1598.01 1333.07 1598.01 1340.2 Q1598.01 1347.3 1599.81 1350.87 Q1601.64 1354.41 1605.25 1354.41 Q1608.89 1354.41 1610.69 1350.87 Q1612.52 1347.3 1612.52 1340.2 Q1612.52 1333.07 1610.69 1329.52 Q1608.89 1325.96 1605.25 1325.96 M1605.25 1322.26 Q1611.06 1322.26 1614.12 1326.86 Q1617.2 1331.45 1617.2 1340.2 Q1617.2 1348.92 1614.12 1353.53 Q1611.06 1358.11 1605.25 1358.11 Q1599.44 1358.11 1596.36 1353.53 Q1593.31 1348.92 1593.31 1340.2 Q1593.31 1331.45 1596.36 1326.86 Q1599.44 1322.26 1605.25 1322.26 Z" fill="#000000" fill-rule="evenodd" fill-opacity="1"></path><path clip-path="url(#clip720)" d="M1653.58 1331.98 L1643.01 1342.6 L1653.58 1353.18 L1650.83 1355.98 L1640.2 1345.36 L1629.58 1355.98 L1626.85 1353.18 L1637.4 1342.6 L1626.85 1331.98 L1629.58 1329.18 L1640.2 1339.8 L1650.83 1329.18 L1653.58 1331.98 Z" fill="#000000" fill-rule="evenodd" fill-opacity="1"></path><path clip-path="url(#clip720)" d="M1665.95 1353.51 L1673.58 1353.51 L1673.58 1327.14 L1665.27 1328.81 L1665.27 1324.55 L1673.54 1322.88 L1678.21 1322.88 L1678.21 1353.51 L1685.85 1353.51 L1685.85 1357.44 L1665.95 1357.44 L1665.95 1353.51 Z" fill="#000000" fill-rule="evenodd" fill-opacity="1"></path><path clip-path="url(#clip720)" d="M1705.3 1325.96 Q1701.69 1325.96 1699.86 1329.52 Q1698.05 1333.07 1698.05 1340.2 Q1698.05 1347.3 1699.86 1350.87 Q1701.69 1354.41 1705.3 1354.41 Q1708.93 1354.41 1710.74 1350.87 Q1712.57 1347.3 1712.57 1340.2 Q1712.57 1333.07 1710.74 1329.52 Q1708.93 1325.96 1705.3 1325.96 M1705.3 1322.26 Q1711.11 1322.26 1714.16 1326.86 Q1717.24 1331.45 1717.24 1340.2 Q1717.24 1348.92 1714.16 1353.53 Q1711.11 1358.11 1705.3 1358.11 Q1699.49 1358.11 1696.41 1353.53 Q1693.35 1348.92 1693.35 1340.2 Q1693.35 1331.45 1696.41 1326.86 Q1699.49 1322.26 1705.3 1322.26 Z" fill="#000000" fill-rule="evenodd" fill-opacity="1"></path><path clip-path="url(#clip720)" d="M1729.94 1314.89 Q1732.66 1315.47 1734.19 1317.32 Q1735.73 1319.16 1735.73 1321.87 Q1735.73 1326.03 1732.87 1328.3 Q1730.01 1330.58 1724.75 1330.58 Q1722.98 1330.58 1721.1 1330.22 Q1719.23 1329.88 1717.24 1329.18 L1717.24 1325.52 Q1718.82 1326.44 1720.7 1326.91 Q1722.58 1327.38 1724.63 1327.38 Q1728.21 1327.38 1730.07 1325.97 Q1731.95 1324.56 1731.95 1321.87 Q1731.95 1319.39 1730.2 1317.99 Q1728.47 1316.58 1725.37 1316.58 L1722.09 1316.58 L1722.09 1313.46 L1725.52 1313.46 Q1728.32 1313.46 1729.8 1312.35 Q1731.29 1311.22 1731.29 1309.12 Q1731.29 1306.95 1729.75 1305.81 Q1728.22 1304.64 1725.37 1304.64 Q1723.81 1304.64 1722.02 1304.98 Q1720.23 1305.32 1718.09 1306.03 L1718.09 1302.65 Q1720.25 1302.05 1722.13 1301.74 Q1724.03 1301.44 1725.7 1301.44 Q1730.03 1301.44 1732.55 1303.42 Q1735.07 1305.37 1735.07 1308.72 Q1735.07 1311.05 1733.74 1312.67 Q1732.4 1314.27 1729.94 1314.89 Z" fill="#000000" fill-rule="evenodd" fill-opacity="1"></path><path clip-path="url(#clip720)" d="M1751.53 1314.48 Q1748.97 1314.48 1747.47 1316.23 Q1745.98 1317.98 1745.98 1321.02 Q1745.98 1324.05 1747.47 1325.82 Q1748.97 1327.57 1751.53 1327.57 Q1754.09 1327.57 1755.57 1325.82 Q1757.08 1324.05 1757.08 1321.02 Q1757.08 1317.98 1755.57 1316.23 Q1754.09 1314.48 1751.53 1314.48 M1759.07 1302.57 L1759.07 1306.03 Q1757.64 1305.36 1756.17 1305 Q1754.73 1304.64 1753.3 1304.64 Q1749.53 1304.64 1747.54 1307.18 Q1745.57 1309.72 1745.28 1314.85 Q1746.39 1313.22 1748.07 1312.35 Q1749.74 1311.47 1751.75 1311.47 Q1755.99 1311.47 1758.43 1314.04 Q1760.89 1316.6 1760.89 1321.02 Q1760.89 1325.35 1758.34 1327.96 Q1755.78 1330.58 1751.53 1330.58 Q1746.66 1330.58 1744.08 1326.85 Q1741.5 1323.11 1741.5 1316.02 Q1741.5 1309.36 1744.66 1305.41 Q1747.82 1301.44 1753.15 1301.44 Q1754.57 1301.44 1756.02 1301.73 Q1757.49 1302.01 1759.07 1302.57 Z" fill="#000000" fill-rule="evenodd" fill-opacity="1"></path><path clip-path="url(#clip720)" d="M1589.32 1294.06 L1596.95 1294.06 L1596.95 1267.69 L1588.64 1269.36 L1588.64 1265.1 L1596.91 1263.43 L1601.58 1263.43 L1601.58 1294.06 L1609.22 1294.06 L1609.22 1297.99 L1589.32 1297.99 L1589.32 1294.06 Z" fill="#000000" fill-rule="evenodd" fill-opacity="1"></path><path clip-path="url(#clip720)" d="M1618.67 1292.11 L1623.55 1292.11 L1623.55 1297.99 L1618.67 1297.99 L1618.67 1292.11 Z" fill="#000000" fill-rule="evenodd" fill-opacity="1"></path><path clip-path="url(#clip720)" d="M1633.78 1263.43 L1652.14 1263.43 L1652.14 1267.37 L1638.07 1267.37 L1638.07 1275.84 Q1639.08 1275.49 1640.1 1275.33 Q1641.12 1275.14 1642.14 1275.14 Q1647.93 1275.14 1651.31 1278.32 Q1654.69 1281.49 1654.69 1286.9 Q1654.69 1292.48 1651.21 1295.58 Q1647.74 1298.66 1641.42 1298.66 Q1639.25 1298.66 1636.98 1298.29 Q1634.73 1297.92 1632.32 1297.18 L1632.32 1292.48 Q1634.41 1293.62 1636.63 1294.17 Q1638.85 1294.73 1641.33 1294.73 Q1645.33 1294.73 1647.67 1292.62 Q1650.01 1290.51 1650.01 1286.9 Q1650.01 1283.29 1647.67 1281.19 Q1645.33 1279.08 1641.33 1279.08 Q1639.45 1279.08 1637.58 1279.5 Q1635.73 1279.91 1633.78 1280.79 L1633.78 1263.43 Z" fill="#000000" fill-rule="evenodd" fill-opacity="1"></path><path clip-path="url(#clip720)" d="M1673.9 1266.51 Q1670.29 1266.51 1668.46 1270.07 Q1666.65 1273.62 1666.65 1280.75 Q1666.65 1287.85 1668.46 1291.42 Q1670.29 1294.96 1673.9 1294.96 Q1677.53 1294.96 1679.34 1291.42 Q1681.17 1287.85 1681.17 1280.75 Q1681.17 1273.62 1679.34 1270.07 Q1677.53 1266.51 1673.9 1266.51 M1673.9 1262.81 Q1679.71 1262.81 1682.76 1267.41 Q1685.84 1272 1685.84 1280.75 Q1685.84 1289.47 1682.76 1294.08 Q1679.71 1298.66 1673.9 1298.66 Q1668.09 1298.66 1665.01 1294.08 Q1661.95 1289.47 1661.95 1280.75 Q1661.95 1272 1665.01 1267.41 Q1668.09 1262.81 1673.9 1262.81 Z" fill="#000000" fill-rule="evenodd" fill-opacity="1"></path><path clip-path="url(#clip720)" d="M1722.23 1272.53 L1711.65 1283.15 L1722.23 1293.73 L1719.48 1296.53 L1708.85 1285.91 L1698.23 1296.53 L1695.5 1293.73 L1706.05 1283.15 L1695.5 1272.53 L1698.23 1269.73 L1708.85 1280.35 L1719.48 1269.73 L1722.23 1272.53 Z" fill="#000000" fill-rule="evenodd" fill-opacity="1"></path><path clip-path="url(#clip720)" d="M1734.59 1294.06 L1742.23 1294.06 L1742.23 1267.69 L1733.92 1269.36 L1733.92 1265.1 L1742.19 1263.43 L1746.86 1263.43 L1746.86 1294.06 L1754.5 1294.06 L1754.5 1297.99 L1734.59 1297.99 L1734.59 1294.06 Z" fill="#000000" fill-rule="evenodd" fill-opacity="1"></path><path clip-path="url(#clip720)" d="M1773.94 1266.51 Q1770.33 1266.51 1768.5 1270.07 Q1766.7 1273.62 1766.7 1280.75 Q1766.7 1287.85 1768.5 1291.42 Q1770.33 1294.96 1773.94 1294.96 Q1777.58 1294.96 1779.38 1291.42 Q1781.21 1287.85 1781.21 1280.75 Q1781.21 1273.62 1779.38 1270.07 Q1777.58 1266.51 1773.94 1266.51 M1773.94 1262.81 Q1779.75 1262.81 1782.81 1267.41 Q1785.89 1272 1785.89 1280.75 Q1785.89 1289.47 1782.81 1294.08 Q1779.75 1298.66 1773.94 1298.66 Q1768.13 1298.66 1765.06 1294.08 Q1762 1289.47 1762 1280.75 Q1762 1272 1765.06 1267.41 Q1768.13 1262.81 1773.94 1262.81 Z" fill="#000000" fill-rule="evenodd" fill-opacity="1"></path><path clip-path="url(#clip720)" d="M1798.58 1255.44 Q1801.31 1256.02 1802.83 1257.87 Q1804.38 1259.71 1804.38 1262.42 Q1804.38 1266.57 1801.52 1268.85 Q1798.66 1271.13 1793.39 1271.13 Q1791.63 1271.13 1789.74 1270.77 Q1787.88 1270.43 1785.89 1269.73 L1785.89 1266.07 Q1787.47 1266.99 1789.35 1267.46 Q1791.23 1267.93 1793.28 1267.93 Q1796.85 1267.93 1798.72 1266.52 Q1800.6 1265.11 1800.6 1262.42 Q1800.6 1259.94 1798.85 1258.54 Q1797.12 1257.13 1794.01 1257.13 L1790.74 1257.13 L1790.74 1254.01 L1794.16 1254.01 Q1796.97 1254.01 1798.45 1252.9 Q1799.94 1251.77 1799.94 1249.67 Q1799.94 1247.5 1798.4 1246.36 Q1796.87 1245.19 1794.01 1245.19 Q1792.45 1245.19 1790.67 1245.53 Q1788.88 1245.87 1786.74 1246.58 L1786.74 1243.2 Q1788.9 1242.59 1790.78 1242.29 Q1792.68 1241.99 1794.35 1241.99 Q1798.68 1241.99 1801.2 1243.97 Q1803.72 1245.92 1803.72 1249.27 Q1803.72 1251.6 1802.38 1253.22 Q1801.05 1254.82 1798.58 1255.44 Z" fill="#000000" fill-rule="evenodd" fill-opacity="1"></path><path clip-path="url(#clip720)" d="M1820.18 1255.03 Q1817.62 1255.03 1816.11 1256.78 Q1814.63 1258.52 1814.63 1261.57 Q1814.63 1264.6 1816.11 1266.37 Q1817.62 1268.12 1820.18 1268.12 Q1822.73 1268.12 1824.22 1266.37 Q1825.72 1264.6 1825.72 1261.57 Q1825.72 1258.52 1824.22 1256.78 Q1822.73 1255.03 1820.18 1255.03 M1827.72 1243.12 L1827.72 1246.58 Q1826.29 1245.9 1824.82 1245.55 Q1823.37 1245.19 1821.94 1245.19 Q1818.18 1245.19 1816.19 1247.73 Q1814.21 1250.27 1813.93 1255.4 Q1815.04 1253.77 1816.71 1252.9 Q1818.39 1252.02 1820.4 1252.02 Q1824.63 1252.02 1827.08 1254.59 Q1829.54 1257.15 1829.54 1261.57 Q1829.54 1265.9 1826.98 1268.51 Q1824.43 1271.13 1820.18 1271.13 Q1815.3 1271.13 1812.73 1267.4 Q1810.15 1263.66 1810.15 1256.57 Q1810.15 1249.91 1813.31 1245.96 Q1816.47 1241.99 1821.79 1241.99 Q1823.22 1241.99 1824.67 1242.27 Q1826.14 1242.56 1827.72 1243.12 Z" fill="#000000" fill-rule="evenodd" fill-opacity="1"></path><path clip-path="url(#clip720)" d="M1662.05 1234.61 L1678.37 1234.61 L1678.37 1238.54 L1656.42 1238.54 L1656.42 1234.61 Q1659.09 1231.85 1663.67 1227.22 Q1668.28 1222.57 1669.46 1221.23 Q1671.7 1218.7 1672.58 1216.97 Q1673.48 1215.21 1673.48 1213.52 Q1673.48 1210.76 1671.54 1209.03 Q1669.62 1207.29 1666.52 1207.29 Q1664.32 1207.29 1661.86 1208.05 Q1659.43 1208.82 1656.66 1210.37 L1656.66 1205.65 Q1659.48 1204.51 1661.93 1203.93 Q1664.39 1203.36 1666.42 1203.36 Q1671.79 1203.36 1674.99 1206.04 Q1678.18 1208.73 1678.18 1213.22 Q1678.18 1215.35 1677.37 1217.27 Q1676.59 1219.17 1674.48 1221.76 Q1673.9 1222.43 1670.8 1225.65 Q1667.7 1228.84 1662.05 1234.61 Z" fill="#000000" fill-rule="evenodd" fill-opacity="1"></path><path clip-path="url(#clip720)" d="M1688.18 1232.66 L1693.07 1232.66 L1693.07 1238.54 L1688.18 1238.54 L1688.18 1232.66 Z" fill="#000000" fill-rule="evenodd" fill-opacity="1"></path><path clip-path="url(#clip720)" d="M1713.25 1207.06 Q1709.64 1207.06 1707.81 1210.62 Q1706.01 1214.17 1706.01 1221.3 Q1706.01 1228.4 1707.81 1231.97 Q1709.64 1235.51 1713.25 1235.51 Q1716.89 1235.51 1718.69 1231.97 Q1720.52 1228.4 1720.52 1221.3 Q1720.52 1214.17 1718.69 1210.62 Q1716.89 1207.06 1713.25 1207.06 M1713.25 1203.36 Q1719.06 1203.36 1722.12 1207.96 Q1725.2 1212.55 1725.2 1221.3 Q1725.2 1230.02 1722.12 1234.63 Q1719.06 1239.21 1713.25 1239.21 Q1707.44 1239.21 1704.36 1234.63 Q1701.31 1230.02 1701.31 1221.3 Q1701.31 1212.55 1704.36 1207.96 Q1707.44 1203.36 1713.25 1203.36 Z" fill="#000000" fill-rule="evenodd" fill-opacity="1"></path><path clip-path="url(#clip720)" d="M1743.41 1207.06 Q1739.8 1207.06 1737.97 1210.62 Q1736.17 1214.17 1736.17 1221.3 Q1736.17 1228.4 1737.97 1231.97 Q1739.8 1235.51 1743.41 1235.51 Q1747.05 1235.51 1748.85 1231.97 Q1750.68 1228.4 1750.68 1221.3 Q1750.68 1214.17 1748.85 1210.62 Q1747.05 1207.06 1743.41 1207.06 M1743.41 1203.36 Q1749.22 1203.36 1752.28 1207.96 Q1755.36 1212.55 1755.36 1221.3 Q1755.36 1230.02 1752.28 1234.63 Q1749.22 1239.21 1743.41 1239.21 Q1737.6 1239.21 1734.53 1234.63 Q1731.47 1230.02 1731.47 1221.3 Q1731.47 1212.55 1734.53 1207.96 Q1737.6 1203.36 1743.41 1203.36 Z" fill="#000000" fill-rule="evenodd" fill-opacity="1"></path><path clip-path="url(#clip720)" d="M1791.75 1213.08 L1781.17 1223.7 L1791.75 1234.28 L1788.99 1237.08 L1778.37 1226.46 L1767.74 1237.08 L1765.01 1234.28 L1775.57 1223.7 L1765.01 1213.08 L1767.74 1210.28 L1778.37 1220.9 L1788.99 1210.28 L1791.75 1213.08 Z" fill="#000000" fill-rule="evenodd" fill-opacity="1"></path><path clip-path="url(#clip720)" d="M1804.11 1234.61 L1811.75 1234.61 L1811.75 1208.24 L1803.44 1209.91 L1803.44 1205.65 L1811.7 1203.98 L1816.38 1203.98 L1816.38 1234.61 L1824.02 1234.61 L1824.02 1238.54 L1804.11 1238.54 L1804.11 1234.61 Z" fill="#000000" fill-rule="evenodd" fill-opacity="1"></path><path clip-path="url(#clip720)" d="M1843.46 1207.06 Q1839.85 1207.06 1838.02 1210.62 Q1836.21 1214.17 1836.21 1221.3 Q1836.21 1228.4 1838.02 1231.97 Q1839.85 1235.51 1843.46 1235.51 Q1847.09 1235.51 1848.9 1231.97 Q1850.73 1228.4 1850.73 1221.3 Q1850.73 1214.17 1848.9 1210.62 Q1847.09 1207.06 1843.46 1207.06 M1843.46 1203.36 Q1849.27 1203.36 1852.33 1207.96 Q1855.4 1212.55 1855.4 1221.3 Q1855.4 1230.02 1852.33 1234.63 Q1849.27 1239.21 1843.46 1239.21 Q1837.65 1239.21 1834.57 1234.63 Q1831.52 1230.02 1831.52 1221.3 Q1831.52 1212.55 1834.57 1207.96 Q1837.65 1203.36 1843.46 1203.36 Z" fill="#000000" fill-rule="evenodd" fill-opacity="1"></path><path clip-path="url(#clip720)" d="M1868.1 1195.99 Q1870.83 1196.57 1872.35 1198.42 Q1873.89 1200.26 1873.89 1202.97 Q1873.89 1207.12 1871.03 1209.4 Q1868.17 1211.68 1862.91 1211.68 Q1861.14 1211.68 1859.26 1211.32 Q1857.4 1210.98 1855.4 1210.28 L1855.4 1206.62 Q1856.98 1207.54 1858.87 1208.01 Q1860.75 1208.48 1862.8 1208.48 Q1866.37 1208.48 1868.23 1207.07 Q1870.11 1205.66 1870.11 1202.97 Q1870.11 1200.48 1868.36 1199.09 Q1866.63 1197.68 1863.53 1197.68 L1860.26 1197.68 L1860.26 1194.56 L1863.68 1194.56 Q1866.48 1194.56 1867.97 1193.45 Q1869.45 1192.32 1869.45 1190.22 Q1869.45 1188.05 1867.91 1186.91 Q1866.39 1185.74 1863.53 1185.74 Q1861.97 1185.74 1860.18 1186.08 Q1858.39 1186.42 1856.25 1187.13 L1856.25 1183.75 Q1858.41 1183.14 1860.29 1182.84 Q1862.19 1182.54 1863.87 1182.54 Q1868.19 1182.54 1870.71 1184.52 Q1873.23 1186.47 1873.23 1189.82 Q1873.23 1192.15 1871.9 1193.77 Q1870.56 1195.37 1868.1 1195.99 Z" fill="#000000" fill-rule="evenodd" fill-opacity="1"></path><path clip-path="url(#clip720)" d="M1889.69 1195.58 Q1887.13 1195.58 1885.63 1197.33 Q1884.14 1199.07 1884.14 1202.12 Q1884.14 1205.15 1885.63 1206.92 Q1887.13 1208.67 1889.69 1208.67 Q1892.25 1208.67 1893.73 1206.92 Q1895.24 1205.15 1895.24 1202.12 Q1895.24 1199.07 1893.73 1197.33 Q1892.25 1195.58 1889.69 1195.58 M1897.23 1183.67 L1897.23 1187.13 Q1895.8 1186.45 1894.34 1186.1 Q1892.89 1185.74 1891.46 1185.74 Q1887.7 1185.74 1885.7 1188.28 Q1883.73 1190.82 1883.45 1195.95 Q1884.56 1194.32 1886.23 1193.45 Q1887.9 1192.57 1889.92 1192.57 Q1894.15 1192.57 1896.59 1195.14 Q1899.06 1197.7 1899.06 1202.12 Q1899.06 1206.45 1896.5 1209.06 Q1893.94 1211.68 1889.69 1211.68 Q1884.82 1211.68 1882.24 1207.95 Q1879.67 1204.21 1879.67 1197.12 Q1879.67 1190.46 1882.83 1186.51 Q1885.99 1182.54 1891.31 1182.54 Q1892.74 1182.54 1894.19 1182.82 Q1895.65 1183.11 1897.23 1183.67 Z" fill="#000000" fill-rule="evenodd" fill-opacity="1"></path><path clip-path="url(#clip720)" d="M1730.7 1175.15 L1747.02 1175.15 L1747.02 1179.09 L1725.07 1179.09 L1725.07 1175.15 Q1727.73 1172.4 1732.32 1167.77 Q1736.92 1163.12 1738.1 1161.78 Q1740.35 1159.25 1741.23 1157.52 Q1742.13 1155.76 1742.13 1154.07 Q1742.13 1151.31 1740.19 1149.58 Q1738.27 1147.84 1735.16 1147.84 Q1732.97 1147.84 1730.51 1148.6 Q1728.08 1149.37 1725.3 1150.92 L1725.3 1146.2 Q1728.13 1145.06 1730.58 1144.48 Q1733.03 1143.9 1735.07 1143.9 Q1740.44 1143.9 1743.64 1146.59 Q1746.83 1149.28 1746.83 1153.77 Q1746.83 1155.9 1746.02 1157.82 Q1745.23 1159.71 1743.13 1162.31 Q1742.55 1162.98 1739.45 1166.2 Q1736.34 1169.39 1730.7 1175.15 Z" fill="#000000" fill-rule="evenodd" fill-opacity="1"></path><path clip-path="url(#clip720)" d="M1756.83 1173.21 L1761.71 1173.21 L1761.71 1179.09 L1756.83 1179.09 L1756.83 1173.21 Z" fill="#000000" fill-rule="evenodd" fill-opacity="1"></path><path clip-path="url(#clip720)" d="M1771.95 1144.53 L1790.3 1144.53 L1790.3 1148.47 L1776.23 1148.47 L1776.23 1156.94 Q1777.25 1156.59 1778.27 1156.43 Q1779.28 1156.24 1780.3 1156.24 Q1786.09 1156.24 1789.47 1159.41 Q1792.85 1162.59 1792.85 1168 Q1792.85 1173.58 1789.38 1176.68 Q1785.9 1179.76 1779.59 1179.76 Q1777.41 1179.76 1775.14 1179.39 Q1772.9 1179.02 1770.49 1178.28 L1770.49 1173.58 Q1772.57 1174.71 1774.79 1175.27 Q1777.02 1175.83 1779.49 1175.83 Q1783.5 1175.83 1785.84 1173.72 Q1788.17 1171.61 1788.17 1168 Q1788.17 1164.39 1785.84 1162.28 Q1783.5 1160.18 1779.49 1160.18 Q1777.62 1160.18 1775.74 1160.59 Q1773.89 1161.01 1771.95 1161.89 L1771.95 1144.53 Z" fill="#000000" fill-rule="evenodd" fill-opacity="1"></path><path clip-path="url(#clip720)" d="M1812.06 1147.61 Q1808.45 1147.61 1806.62 1151.17 Q1804.82 1154.72 1804.82 1161.84 Q1804.82 1168.95 1806.62 1172.52 Q1808.45 1176.06 1812.06 1176.06 Q1815.7 1176.06 1817.5 1172.52 Q1819.33 1168.95 1819.33 1161.84 Q1819.33 1154.72 1817.5 1151.17 Q1815.7 1147.61 1812.06 1147.61 M1812.06 1143.9 Q1817.87 1143.9 1820.93 1148.51 Q1824.01 1153.09 1824.01 1161.84 Q1824.01 1170.57 1820.93 1175.18 Q1817.87 1179.76 1812.06 1179.76 Q1806.25 1179.76 1803.17 1175.18 Q1800.12 1170.57 1800.12 1161.84 Q1800.12 1153.09 1803.17 1148.51 Q1806.25 1143.9 1812.06 1143.9 Z" fill="#000000" fill-rule="evenodd" fill-opacity="1"></path><path clip-path="url(#clip720)" d="M1860.39 1153.63 L1849.82 1164.25 L1860.39 1174.83 L1857.64 1177.63 L1847.02 1167.01 L1836.39 1177.63 L1833.66 1174.83 L1844.21 1164.25 L1833.66 1153.63 L1836.39 1150.83 L1847.02 1161.45 L1857.64 1150.83 L1860.39 1153.63 Z" fill="#000000" fill-rule="evenodd" fill-opacity="1"></path><path clip-path="url(#clip720)" d="M1872.76 1175.15 L1880.39 1175.15 L1880.39 1148.79 L1872.08 1150.46 L1872.08 1146.2 L1880.35 1144.53 L1885.02 1144.53 L1885.02 1175.15 L1892.66 1175.15 L1892.66 1179.09 L1872.76 1179.09 L1872.76 1175.15 Z" fill="#000000" fill-rule="evenodd" fill-opacity="1"></path><path clip-path="url(#clip720)" d="M1912.11 1147.61 Q1908.5 1147.61 1906.67 1151.17 Q1904.86 1154.72 1904.86 1161.84 Q1904.86 1168.95 1906.67 1172.52 Q1908.5 1176.06 1912.11 1176.06 Q1915.74 1176.06 1917.55 1172.52 Q1919.38 1168.95 1919.38 1161.84 Q1919.38 1154.72 1917.55 1151.17 Q1915.74 1147.61 1912.11 1147.61 M1912.11 1143.9 Q1917.92 1143.9 1920.97 1148.51 Q1924.05 1153.09 1924.05 1161.84 Q1924.05 1170.57 1920.97 1175.18 Q1917.92 1179.76 1912.11 1179.76 Q1906.3 1179.76 1903.22 1175.18 Q1900.16 1170.57 1900.16 1161.84 Q1900.16 1153.09 1903.22 1148.51 Q1906.3 1143.9 1912.11 1143.9 Z" fill="#000000" fill-rule="evenodd" fill-opacity="1"></path><path clip-path="url(#clip720)" d="M1936.75 1136.54 Q1939.47 1137.12 1941 1138.97 Q1942.54 1140.81 1942.54 1143.52 Q1942.54 1147.67 1939.68 1149.95 Q1936.82 1152.22 1931.56 1152.22 Q1929.79 1152.22 1927.91 1151.87 Q1926.05 1151.53 1924.05 1150.83 L1924.05 1147.17 Q1925.63 1148.09 1927.51 1148.56 Q1929.39 1149.03 1931.44 1149.03 Q1935.02 1149.03 1936.88 1147.62 Q1938.76 1146.21 1938.76 1143.52 Q1938.76 1141.03 1937.01 1139.64 Q1935.28 1138.23 1932.18 1138.23 L1928.9 1138.23 L1928.9 1135.11 L1932.33 1135.11 Q1935.13 1135.11 1936.62 1134 Q1938.1 1132.87 1938.1 1130.77 Q1938.1 1128.6 1936.56 1127.46 Q1935.04 1126.29 1932.18 1126.29 Q1930.62 1126.29 1928.83 1126.63 Q1927.04 1126.97 1924.9 1127.68 L1924.9 1124.3 Q1927.06 1123.69 1928.94 1123.39 Q1930.84 1123.09 1932.52 1123.09 Q1936.84 1123.09 1939.36 1125.07 Q1941.88 1127.02 1941.88 1130.37 Q1941.88 1132.7 1940.55 1134.32 Q1939.21 1135.92 1936.75 1136.54 Z" fill="#000000" fill-rule="evenodd" fill-opacity="1"></path><path clip-path="url(#clip720)" d="M1958.34 1136.13 Q1955.78 1136.13 1954.28 1137.87 Q1952.79 1139.62 1952.79 1142.67 Q1952.79 1145.7 1954.28 1147.47 Q1955.78 1149.22 1958.34 1149.22 Q1960.9 1149.22 1962.38 1147.47 Q1963.89 1145.7 1963.89 1142.67 Q1963.89 1139.62 1962.38 1137.87 Q1960.9 1136.13 1958.34 1136.13 M1965.88 1124.22 L1965.88 1127.68 Q1964.45 1127 1962.98 1126.65 Q1961.54 1126.29 1960.11 1126.29 Q1956.34 1126.29 1954.35 1128.83 Q1952.38 1131.37 1952.09 1136.5 Q1953.2 1134.87 1954.88 1134 Q1956.55 1133.12 1958.56 1133.12 Q1962.8 1133.12 1965.24 1135.69 Q1967.7 1138.25 1967.7 1142.67 Q1967.7 1147 1965.15 1149.61 Q1962.59 1152.22 1958.34 1152.22 Q1953.47 1152.22 1950.89 1148.5 Q1948.31 1144.76 1948.31 1137.67 Q1948.31 1131.01 1951.47 1127.06 Q1954.63 1123.09 1959.96 1123.09 Q1961.39 1123.09 1962.83 1123.37 Q1964.3 1123.66 1965.88 1124.22 Z" fill="#000000" fill-rule="evenodd" fill-opacity="1"></path><polyline clip-path="url(#clip722)" style="stroke:#000000; stroke-linecap:round; stroke-linejoin:round; stroke-width:2; stroke-opacity:0.1; fill:none" points="778.032,1172.63 1189.95,815.898 1903.41,1021.86 "></polyline>
<polyline clip-path="url(#clip722)" style="stroke:#000000; stroke-linecap:round; stroke-linejoin:round; stroke-width:2; stroke-opacity:0.1; fill:none" points="778.032,1018.14 1189.95,661.405 1903.41,867.364 "></polyline>
<polyline clip-path="url(#clip722)" style="stroke:#000000; stroke-linecap:round; stroke-linejoin:round; stroke-width:2; stroke-opacity:0.1; fill:none" points="778.032,863.643 1189.95,506.913 1903.41,712.871 "></polyline>
<polyline clip-path="url(#clip722)" style="stroke:#000000; stroke-linecap:round; stroke-linejoin:round; stroke-width:2; stroke-opacity:0.1; fill:none" points="778.032,709.15 1189.95,352.42 1903.41,558.378 "></polyline>
<polyline clip-path="url(#clip722)" style="stroke:#000000; stroke-linecap:round; stroke-linejoin:round; stroke-width:2; stroke-opacity:0.1; fill:none" points="778.032,554.658 1189.95,197.928 1903.41,403.886 "></polyline>
<polyline clip-path="url(#clip720)" style="stroke:#000000; stroke-linecap:round; stroke-linejoin:round; stroke-width:4; stroke-opacity:1; fill:none" points="778.032,1192.82 778.032,479.36 "></polyline>
<polyline clip-path="url(#clip720)" style="stroke:#000000; stroke-linecap:round; stroke-linejoin:round; stroke-width:4; stroke-opacity:1; fill:none" points="778.032,1172.63 782.975,1168.35 "></polyline>
<polyline clip-path="url(#clip720)" style="stroke:#000000; stroke-linecap:round; stroke-linejoin:round; stroke-width:4; stroke-opacity:1; fill:none" points="778.032,1018.14 782.975,1013.85 "></polyline>
<polyline clip-path="url(#clip720)" style="stroke:#000000; stroke-linecap:round; stroke-linejoin:round; stroke-width:4; stroke-opacity:1; fill:none" points="778.032,863.643 782.975,859.362 "></polyline>
<polyline clip-path="url(#clip720)" style="stroke:#000000; stroke-linecap:round; stroke-linejoin:round; stroke-width:4; stroke-opacity:1; fill:none" points="778.032,709.15 782.975,704.87 "></polyline>
<polyline clip-path="url(#clip720)" style="stroke:#000000; stroke-linecap:round; stroke-linejoin:round; stroke-width:4; stroke-opacity:1; fill:none" points="778.032,554.658 782.975,550.377 "></polyline>
<path clip-path="url(#clip720)" d="M737.288 1158.43 Q733.677 1158.43 731.848 1161.99 Q730.042 1165.53 730.042 1172.66 Q730.042 1179.77 731.848 1183.33 Q733.677 1186.88 737.288 1186.88 Q740.922 1186.88 742.727 1183.33 Q744.556 1179.77 744.556 1172.66 Q744.556 1165.53 742.727 1161.99 Q740.922 1158.43 737.288 1158.43 M737.288 1154.72 Q743.098 1154.72 746.153 1159.33 Q749.232 1163.91 749.232 1172.66 Q749.232 1181.39 746.153 1186 Q743.098 1190.58 737.288 1190.58 Q731.478 1190.58 728.399 1186 Q725.343 1181.39 725.343 1172.66 Q725.343 1163.91 728.399 1159.33 Q731.478 1154.72 737.288 1154.72 Z" fill="#000000" fill-rule="evenodd" fill-opacity="1"></path><path clip-path="url(#clip720)" d="M513.164 1037.93 L529.484 1037.93 L529.484 1041.86 L507.539 1041.86 L507.539 1037.93 Q510.201 1035.17 514.785 1030.54 Q519.391 1025.89 520.572 1024.55 Q522.817 1022.03 523.697 1020.29 Q524.599 1018.53 524.599 1016.84 Q524.599 1014.09 522.655 1012.35 Q520.734 1010.61 517.632 1010.61 Q515.433 1010.61 512.979 1011.38 Q510.548 1012.14 507.771 1013.69 L507.771 1008.97 Q510.595 1007.84 513.048 1007.26 Q515.502 1006.68 517.539 1006.68 Q522.909 1006.68 526.104 1009.36 Q529.298 1012.05 529.298 1016.54 Q529.298 1018.67 528.488 1020.59 Q527.701 1022.49 525.595 1025.08 Q525.016 1025.75 521.914 1028.97 Q518.812 1032.16 513.164 1037.93 Z" fill="#000000" fill-rule="evenodd" fill-opacity="1"></path><path clip-path="url(#clip720)" d="M539.298 1035.98 L544.183 1035.98 L544.183 1041.86 L539.298 1041.86 L539.298 1035.98 Z" fill="#000000" fill-rule="evenodd" fill-opacity="1"></path><path clip-path="url(#clip720)" d="M554.414 1007.3 L572.77 1007.3 L572.77 1011.24 L558.696 1011.24 L558.696 1019.71 Q559.715 1019.36 560.733 1019.2 Q561.752 1019.02 562.77 1019.02 Q568.557 1019.02 571.937 1022.19 Q575.317 1025.36 575.317 1030.78 Q575.317 1036.35 571.844 1039.46 Q568.372 1042.53 562.053 1042.53 Q559.877 1042.53 557.608 1042.16 Q555.363 1041.79 552.956 1041.05 L552.956 1036.35 Q555.039 1037.49 557.261 1038.04 Q559.483 1038.6 561.96 1038.6 Q565.965 1038.6 568.303 1036.49 Q570.641 1034.39 570.641 1030.78 Q570.641 1027.16 568.303 1025.06 Q565.965 1022.95 561.96 1022.95 Q560.085 1022.95 558.21 1023.37 Q556.358 1023.78 554.414 1024.66 L554.414 1007.3 Z" fill="#000000" fill-rule="evenodd" fill-opacity="1"></path><path clip-path="url(#clip720)" d="M594.529 1010.38 Q590.918 1010.38 589.09 1013.95 Q587.284 1017.49 587.284 1024.62 Q587.284 1031.72 589.09 1035.29 Q590.918 1038.83 594.529 1038.83 Q598.164 1038.83 599.969 1035.29 Q601.798 1031.72 601.798 1024.62 Q601.798 1017.49 599.969 1013.95 Q598.164 1010.38 594.529 1010.38 M594.529 1006.68 Q600.34 1006.68 603.395 1011.28 Q606.474 1015.87 606.474 1024.62 Q606.474 1033.34 603.395 1037.95 Q600.34 1042.53 594.529 1042.53 Q588.719 1042.53 585.641 1037.95 Q582.585 1033.34 582.585 1024.62 Q582.585 1015.87 585.641 1011.28 Q588.719 1006.68 594.529 1006.68 Z" fill="#000000" fill-rule="evenodd" fill-opacity="1"></path><path clip-path="url(#clip720)" d="M642.863 1016.4 L632.284 1027.03 L642.863 1037.6 L640.108 1040.4 L629.483 1029.78 L618.858 1040.4 L616.127 1037.6 L626.682 1027.03 L616.127 1016.4 L618.858 1013.6 L629.483 1024.22 L640.108 1013.6 L642.863 1016.4 Z" fill="#000000" fill-rule="evenodd" fill-opacity="1"></path><path clip-path="url(#clip720)" d="M655.224 1037.93 L662.862 1037.93 L662.862 1011.56 L654.552 1013.23 L654.552 1008.97 L662.816 1007.3 L667.492 1007.3 L667.492 1037.93 L675.131 1037.93 L675.131 1041.86 L655.224 1041.86 L655.224 1037.93 Z" fill="#000000" fill-rule="evenodd" fill-opacity="1"></path><path clip-path="url(#clip720)" d="M694.575 1010.38 Q690.964 1010.38 689.135 1013.95 Q687.33 1017.49 687.33 1024.62 Q687.33 1031.72 689.135 1035.29 Q690.964 1038.83 694.575 1038.83 Q698.209 1038.83 700.015 1035.29 Q701.844 1031.72 701.844 1024.62 Q701.844 1017.49 700.015 1013.95 Q698.209 1010.38 694.575 1010.38 M694.575 1006.68 Q700.385 1006.68 703.441 1011.28 Q706.52 1015.87 706.52 1024.62 Q706.52 1033.34 703.441 1037.95 Q700.385 1042.53 694.575 1042.53 Q688.765 1042.53 685.686 1037.95 Q682.631 1033.34 682.631 1024.62 Q682.631 1015.87 685.686 1011.28 Q688.765 1006.68 694.575 1006.68 Z" fill="#000000" fill-rule="evenodd" fill-opacity="1"></path><path clip-path="url(#clip720)" d="M719.215 999.313 Q721.942 999.896 723.465 1001.74 Q725.008 1003.58 725.008 1006.29 Q725.008 1010.45 722.149 1012.72 Q719.29 1015 714.024 1015 Q712.256 1015 710.375 1014.64 Q708.513 1014.3 706.52 1013.61 L706.52 1009.94 Q708.099 1010.86 709.98 1011.33 Q711.861 1011.8 713.911 1011.8 Q717.485 1011.8 719.347 1010.39 Q721.227 1008.98 721.227 1006.29 Q721.227 1003.81 719.478 1002.42 Q717.748 1001.01 714.645 1001.01 L711.372 1001.01 L711.372 997.883 L714.795 997.883 Q717.597 997.883 719.083 996.773 Q720.569 995.645 720.569 993.539 Q720.569 991.376 719.027 990.228 Q717.503 989.062 714.645 989.062 Q713.084 989.062 711.297 989.401 Q709.51 989.739 707.366 990.454 L707.366 987.069 Q709.529 986.467 711.41 986.166 Q713.309 985.865 714.983 985.865 Q719.309 985.865 721.829 987.84 Q724.349 989.796 724.349 993.144 Q724.349 995.476 723.014 997.093 Q721.679 998.692 719.215 999.313 Z" fill="#000000" fill-rule="evenodd" fill-opacity="1"></path><path clip-path="url(#clip720)" d="M732.249 986.373 L747.163 986.373 L747.163 989.57 L735.728 989.57 L735.728 996.454 Q736.556 996.172 737.383 996.04 Q738.211 995.89 739.038 995.89 Q743.74 995.89 746.486 998.466 Q749.232 1001.04 749.232 1005.44 Q749.232 1009.98 746.411 1012.5 Q743.59 1015 738.455 1015 Q736.687 1015 734.844 1014.7 Q733.02 1014.4 731.064 1013.79 L731.064 1009.98 Q732.756 1010.9 734.562 1011.35 Q736.368 1011.8 738.38 1011.8 Q741.634 1011.8 743.533 1010.09 Q745.433 1008.38 745.433 1005.44 Q745.433 1002.51 743.533 1000.8 Q741.634 999.087 738.38 999.087 Q736.857 999.087 735.333 999.425 Q733.828 999.764 732.249 1000.48 L732.249 986.373 Z" fill="#000000" fill-rule="evenodd" fill-opacity="1"></path><path clip-path="url(#clip720)" d="M509.183 852.811 L527.539 852.811 L527.539 856.746 L513.465 856.746 L513.465 865.218 Q514.484 864.871 515.502 864.709 Q516.521 864.523 517.539 864.523 Q523.326 864.523 526.706 867.695 Q530.085 870.866 530.085 876.283 Q530.085 881.861 526.613 884.963 Q523.141 888.042 516.822 888.042 Q514.646 888.042 512.377 887.672 Q510.132 887.301 507.724 886.56 L507.724 881.861 Q509.808 882.996 512.03 883.551 Q514.252 884.107 516.729 884.107 Q520.734 884.107 523.072 882 Q525.409 879.894 525.409 876.283 Q525.409 872.672 523.072 870.565 Q520.734 868.459 516.729 868.459 Q514.854 868.459 512.979 868.875 Q511.127 869.292 509.183 870.172 L509.183 852.811 Z" fill="#000000" fill-rule="evenodd" fill-opacity="1"></path><path clip-path="url(#clip720)" d="M539.298 881.491 L544.183 881.491 L544.183 887.371 L539.298 887.371 L539.298 881.491 Z" fill="#000000" fill-rule="evenodd" fill-opacity="1"></path><path clip-path="url(#clip720)" d="M564.368 855.889 Q560.757 855.889 558.928 859.454 Q557.122 862.996 557.122 870.125 Q557.122 877.232 558.928 880.797 Q560.757 884.338 564.368 884.338 Q568.002 884.338 569.807 880.797 Q571.636 877.232 571.636 870.125 Q571.636 862.996 569.807 859.454 Q568.002 855.889 564.368 855.889 M564.368 852.186 Q570.178 852.186 573.233 856.792 Q576.312 861.375 576.312 870.125 Q576.312 878.852 573.233 883.459 Q570.178 888.042 564.368 888.042 Q558.557 888.042 555.479 883.459 Q552.423 878.852 552.423 870.125 Q552.423 861.375 555.479 856.792 Q558.557 852.186 564.368 852.186 Z" fill="#000000" fill-rule="evenodd" fill-opacity="1"></path><path clip-path="url(#clip720)" d="M594.529 855.889 Q590.918 855.889 589.09 859.454 Q587.284 862.996 587.284 870.125 Q587.284 877.232 589.09 880.797 Q590.918 884.338 594.529 884.338 Q598.164 884.338 599.969 880.797 Q601.798 877.232 601.798 870.125 Q601.798 862.996 599.969 859.454 Q598.164 855.889 594.529 855.889 M594.529 852.186 Q600.34 852.186 603.395 856.792 Q606.474 861.375 606.474 870.125 Q606.474 878.852 603.395 883.459 Q600.34 888.042 594.529 888.042 Q588.719 888.042 585.641 883.459 Q582.585 878.852 582.585 870.125 Q582.585 861.375 585.641 856.792 Q588.719 852.186 594.529 852.186 Z" fill="#000000" fill-rule="evenodd" fill-opacity="1"></path><path clip-path="url(#clip720)" d="M642.863 861.908 L632.284 872.533 L642.863 883.111 L640.108 885.912 L629.483 875.287 L618.858 885.912 L616.127 883.111 L626.682 872.533 L616.127 861.908 L618.858 859.107 L629.483 869.732 L640.108 859.107 L642.863 861.908 Z" fill="#000000" fill-rule="evenodd" fill-opacity="1"></path><path clip-path="url(#clip720)" d="M655.224 883.435 L662.862 883.435 L662.862 857.07 L654.552 858.736 L654.552 854.477 L662.816 852.811 L667.492 852.811 L667.492 883.435 L675.131 883.435 L675.131 887.371 L655.224 887.371 L655.224 883.435 Z" fill="#000000" fill-rule="evenodd" fill-opacity="1"></path><path clip-path="url(#clip720)" d="M694.575 855.889 Q690.964 855.889 689.135 859.454 Q687.33 862.996 687.33 870.125 Q687.33 877.232 689.135 880.797 Q690.964 884.338 694.575 884.338 Q698.209 884.338 700.015 880.797 Q701.844 877.232 701.844 870.125 Q701.844 862.996 700.015 859.454 Q698.209 855.889 694.575 855.889 M694.575 852.186 Q700.385 852.186 703.441 856.792 Q706.52 861.375 706.52 870.125 Q706.52 878.852 703.441 883.459 Q700.385 888.042 694.575 888.042 Q688.765 888.042 685.686 883.459 Q682.631 878.852 682.631 870.125 Q682.631 861.375 685.686 856.792 Q688.765 852.186 694.575 852.186 Z" fill="#000000" fill-rule="evenodd" fill-opacity="1"></path><path clip-path="url(#clip720)" d="M719.215 844.82 Q721.942 845.403 723.465 847.246 Q725.008 849.089 725.008 851.798 Q725.008 855.954 722.149 858.23 Q719.29 860.506 714.024 860.506 Q712.256 860.506 710.375 860.148 Q708.513 859.81 706.52 859.114 L706.52 855.446 Q708.099 856.368 709.98 856.838 Q711.861 857.308 713.911 857.308 Q717.485 857.308 719.347 855.898 Q721.227 854.487 721.227 851.798 Q721.227 849.315 719.478 847.923 Q717.748 846.513 714.645 846.513 L711.372 846.513 L711.372 843.391 L714.795 843.391 Q717.597 843.391 719.083 842.281 Q720.569 841.152 720.569 839.046 Q720.569 836.883 719.027 835.736 Q717.503 834.57 714.645 834.57 Q713.084 834.57 711.297 834.908 Q709.51 835.247 707.366 835.961 L707.366 832.576 Q709.529 831.974 711.41 831.673 Q713.309 831.372 714.983 831.372 Q719.309 831.372 721.829 833.347 Q724.349 835.303 724.349 838.651 Q724.349 840.983 723.014 842.601 Q721.679 844.199 719.215 844.82 Z" fill="#000000" fill-rule="evenodd" fill-opacity="1"></path><path clip-path="url(#clip720)" d="M732.249 831.88 L747.163 831.88 L747.163 835.078 L735.728 835.078 L735.728 841.961 Q736.556 841.679 737.383 841.547 Q738.211 841.397 739.038 841.397 Q743.74 841.397 746.486 843.974 Q749.232 846.55 749.232 850.951 Q749.232 855.484 746.411 858.004 Q743.59 860.506 738.455 860.506 Q736.687 860.506 734.844 860.205 Q733.02 859.904 731.064 859.302 L731.064 855.484 Q732.756 856.406 734.562 856.857 Q736.368 857.308 738.38 857.308 Q741.634 857.308 743.533 855.597 Q745.433 853.885 745.433 850.951 Q745.433 848.017 743.533 846.306 Q741.634 844.594 738.38 844.594 Q736.857 844.594 735.333 844.933 Q733.828 845.271 732.249 845.986 L732.249 831.88 Z" fill="#000000" fill-rule="evenodd" fill-opacity="1"></path><path clip-path="url(#clip720)" d="M507.956 698.318 L530.178 698.318 L530.178 700.309 L517.632 732.878 L512.748 732.878 L524.553 702.253 L507.956 702.253 L507.956 698.318 Z" fill="#000000" fill-rule="evenodd" fill-opacity="1"></path><path clip-path="url(#clip720)" d="M539.298 726.998 L544.183 726.998 L544.183 732.878 L539.298 732.878 L539.298 726.998 Z" fill="#000000" fill-rule="evenodd" fill-opacity="1"></path><path clip-path="url(#clip720)" d="M554.414 698.318 L572.77 698.318 L572.77 702.253 L558.696 702.253 L558.696 710.725 Q559.715 710.378 560.733 710.216 Q561.752 710.031 562.77 710.031 Q568.557 710.031 571.937 713.202 Q575.317 716.373 575.317 721.79 Q575.317 727.369 571.844 730.471 Q568.372 733.549 562.053 733.549 Q559.877 733.549 557.608 733.179 Q555.363 732.809 552.956 732.068 L552.956 727.369 Q555.039 728.503 557.261 729.059 Q559.483 729.614 561.96 729.614 Q565.965 729.614 568.303 727.508 Q570.641 725.401 570.641 721.79 Q570.641 718.179 568.303 716.073 Q565.965 713.966 561.96 713.966 Q560.085 713.966 558.21 714.383 Q556.358 714.799 554.414 715.679 L554.414 698.318 Z" fill="#000000" fill-rule="evenodd" fill-opacity="1"></path><path clip-path="url(#clip720)" d="M594.529 701.397 Q590.918 701.397 589.09 704.961 Q587.284 708.503 587.284 715.633 Q587.284 722.739 589.09 726.304 Q590.918 729.846 594.529 729.846 Q598.164 729.846 599.969 726.304 Q601.798 722.739 601.798 715.633 Q601.798 708.503 599.969 704.961 Q598.164 701.397 594.529 701.397 M594.529 697.693 Q600.34 697.693 603.395 702.299 Q606.474 706.883 606.474 715.633 Q606.474 724.36 603.395 728.966 Q600.34 733.549 594.529 733.549 Q588.719 733.549 585.641 728.966 Q582.585 724.36 582.585 715.633 Q582.585 706.883 585.641 702.299 Q588.719 697.693 594.529 697.693 Z" fill="#000000" fill-rule="evenodd" fill-opacity="1"></path><path clip-path="url(#clip720)" d="M642.863 707.415 L632.284 718.04 L642.863 728.619 L640.108 731.42 L629.483 720.795 L618.858 731.42 L616.127 728.619 L626.682 718.04 L616.127 707.415 L618.858 704.614 L629.483 715.239 L640.108 704.614 L642.863 707.415 Z" fill="#000000" fill-rule="evenodd" fill-opacity="1"></path><path clip-path="url(#clip720)" d="M655.224 728.943 L662.862 728.943 L662.862 702.577 L654.552 704.244 L654.552 699.985 L662.816 698.318 L667.492 698.318 L667.492 728.943 L675.131 728.943 L675.131 732.878 L655.224 732.878 L655.224 728.943 Z" fill="#000000" fill-rule="evenodd" fill-opacity="1"></path><path clip-path="url(#clip720)" d="M694.575 701.397 Q690.964 701.397 689.135 704.961 Q687.33 708.503 687.33 715.633 Q687.33 722.739 689.135 726.304 Q690.964 729.846 694.575 729.846 Q698.209 729.846 700.015 726.304 Q701.844 722.739 701.844 715.633 Q701.844 708.503 700.015 704.961 Q698.209 701.397 694.575 701.397 M694.575 697.693 Q700.385 697.693 703.441 702.299 Q706.52 706.883 706.52 715.633 Q706.52 724.36 703.441 728.966 Q700.385 733.549 694.575 733.549 Q688.765 733.549 685.686 728.966 Q682.631 724.36 682.631 715.633 Q682.631 706.883 685.686 702.299 Q688.765 697.693 694.575 697.693 Z" fill="#000000" fill-rule="evenodd" fill-opacity="1"></path><path clip-path="url(#clip720)" d="M719.215 690.327 Q721.942 690.91 723.465 692.754 Q725.008 694.597 725.008 697.305 Q725.008 701.462 722.149 703.737 Q719.29 706.013 714.024 706.013 Q712.256 706.013 710.375 705.656 Q708.513 705.317 706.52 704.621 L706.52 700.954 Q708.099 701.875 709.98 702.345 Q711.861 702.816 713.911 702.816 Q717.485 702.816 719.347 701.405 Q721.227 699.995 721.227 697.305 Q721.227 694.822 719.478 693.431 Q717.748 692.02 714.645 692.02 L711.372 692.02 L711.372 688.898 L714.795 688.898 Q717.597 688.898 719.083 687.788 Q720.569 686.66 720.569 684.553 Q720.569 682.39 719.027 681.243 Q717.503 680.077 714.645 680.077 Q713.084 680.077 711.297 680.416 Q709.51 680.754 707.366 681.469 L707.366 678.083 Q709.529 677.482 711.41 677.181 Q713.309 676.88 714.983 676.88 Q719.309 676.88 721.829 678.855 Q724.349 680.811 724.349 684.158 Q724.349 686.491 723.014 688.108 Q721.679 689.707 719.215 690.327 Z" fill="#000000" fill-rule="evenodd" fill-opacity="1"></path><path clip-path="url(#clip720)" d="M732.249 677.388 L747.163 677.388 L747.163 680.585 L735.728 680.585 L735.728 687.469 Q736.556 687.186 737.383 687.055 Q738.211 686.904 739.038 686.904 Q743.74 686.904 746.486 689.481 Q749.232 692.058 749.232 696.459 Q749.232 700.991 746.411 703.512 Q743.59 706.013 738.455 706.013 Q736.687 706.013 734.844 705.712 Q733.02 705.411 731.064 704.809 L731.064 700.991 Q732.756 701.913 734.562 702.364 Q736.368 702.816 738.38 702.816 Q741.634 702.816 743.533 701.104 Q745.433 699.393 745.433 696.459 Q745.433 693.525 743.533 691.813 Q741.634 690.102 738.38 690.102 Q736.857 690.102 735.333 690.44 Q733.828 690.779 732.249 691.493 L732.249 677.388 Z" fill="#000000" fill-rule="evenodd" fill-opacity="1"></path><path clip-path="url(#clip720)" d="M509.006 574.45 L516.645 574.45 L516.645 548.085 L508.335 549.751 L508.335 545.492 L516.599 543.825 L521.275 543.825 L521.275 574.45 L528.914 574.45 L528.914 578.385 L509.006 578.385 L509.006 574.45 Z" fill="#000000" fill-rule="evenodd" fill-opacity="1"></path><path clip-path="url(#clip720)" d="M538.358 572.506 L543.242 572.506 L543.242 578.385 L538.358 578.385 L538.358 572.506 Z" fill="#000000" fill-rule="evenodd" fill-opacity="1"></path><path clip-path="url(#clip720)" d="M563.427 546.904 Q559.816 546.904 557.987 550.469 Q556.182 554.011 556.182 561.14 Q556.182 568.247 557.987 571.811 Q559.816 575.353 563.427 575.353 Q567.061 575.353 568.867 571.811 Q570.696 568.247 570.696 561.14 Q570.696 554.011 568.867 550.469 Q567.061 546.904 563.427 546.904 M563.427 543.2 Q569.237 543.2 572.293 547.807 Q575.372 552.39 575.372 561.14 Q575.372 569.867 572.293 574.473 Q569.237 579.057 563.427 579.057 Q557.617 579.057 554.538 574.473 Q551.483 569.867 551.483 561.14 Q551.483 552.39 554.538 547.807 Q557.617 543.2 563.427 543.2 Z" fill="#000000" fill-rule="evenodd" fill-opacity="1"></path><path clip-path="url(#clip720)" d="M593.589 546.904 Q589.978 546.904 588.149 550.469 Q586.344 554.011 586.344 561.14 Q586.344 568.247 588.149 571.811 Q589.978 575.353 593.589 575.353 Q597.223 575.353 599.029 571.811 Q600.858 568.247 600.858 561.14 Q600.858 554.011 599.029 550.469 Q597.223 546.904 593.589 546.904 M593.589 543.2 Q599.399 543.2 602.455 547.807 Q605.533 552.39 605.533 561.14 Q605.533 569.867 602.455 574.473 Q599.399 579.057 593.589 579.057 Q587.779 579.057 584.7 574.473 Q581.645 569.867 581.645 561.14 Q581.645 552.39 584.7 547.807 Q587.779 543.2 593.589 543.2 Z" fill="#000000" fill-rule="evenodd" fill-opacity="1"></path><path clip-path="url(#clip720)" d="M641.922 552.923 L631.344 563.547 L641.922 574.126 L639.168 576.927 L628.543 566.302 L617.918 576.927 L615.186 574.126 L625.742 563.547 L615.186 552.923 L617.918 550.122 L628.543 560.747 L639.168 550.122 L641.922 552.923 Z" fill="#000000" fill-rule="evenodd" fill-opacity="1"></path><path clip-path="url(#clip720)" d="M654.283 574.45 L661.922 574.45 L661.922 548.085 L653.612 549.751 L653.612 545.492 L661.876 543.825 L666.552 543.825 L666.552 574.45 L674.191 574.45 L674.191 578.385 L654.283 578.385 L654.283 574.45 Z" fill="#000000" fill-rule="evenodd" fill-opacity="1"></path><path clip-path="url(#clip720)" d="M693.635 546.904 Q690.024 546.904 688.195 550.469 Q686.39 554.011 686.39 561.14 Q686.39 568.247 688.195 571.811 Q690.024 575.353 693.635 575.353 Q697.269 575.353 699.075 571.811 Q700.903 568.247 700.903 561.14 Q700.903 554.011 699.075 550.469 Q697.269 546.904 693.635 546.904 M693.635 543.2 Q699.445 543.2 702.501 547.807 Q705.579 552.39 705.579 561.14 Q705.579 569.867 702.501 574.473 Q699.445 579.057 693.635 579.057 Q687.825 579.057 684.746 574.473 Q681.69 569.867 681.69 561.14 Q681.69 552.39 684.746 547.807 Q687.825 543.2 693.635 543.2 Z" fill="#000000" fill-rule="evenodd" fill-opacity="1"></path><path clip-path="url(#clip720)" d="M718.274 535.835 Q721.002 536.418 722.525 538.261 Q724.067 540.104 724.067 542.812 Q724.067 546.969 721.208 549.245 Q718.35 551.52 713.084 551.52 Q711.316 551.52 709.435 551.163 Q707.573 550.825 705.579 550.129 L705.579 546.461 Q707.159 547.383 709.04 547.853 Q710.921 548.323 712.971 548.323 Q716.544 548.323 718.406 546.913 Q720.287 545.502 720.287 542.812 Q720.287 540.33 718.538 538.938 Q716.807 537.527 713.704 537.527 L710.432 537.527 L710.432 534.405 L713.855 534.405 Q716.657 534.405 718.143 533.296 Q719.629 532.167 719.629 530.061 Q719.629 527.898 718.086 526.751 Q716.563 525.584 713.704 525.584 Q712.143 525.584 710.356 525.923 Q708.57 526.262 706.426 526.976 L706.426 523.591 Q708.588 522.989 710.469 522.688 Q712.369 522.387 714.043 522.387 Q718.369 522.387 720.889 524.362 Q723.409 526.318 723.409 529.666 Q723.409 531.998 722.074 533.615 Q720.738 535.214 718.274 535.835 Z" fill="#000000" fill-rule="evenodd" fill-opacity="1"></path><path clip-path="url(#clip720)" d="M739.866 535.421 Q737.308 535.421 735.803 537.17 Q734.317 538.919 734.317 541.966 Q734.317 544.994 735.803 546.762 Q737.308 548.511 739.866 548.511 Q742.424 548.511 743.909 546.762 Q745.414 544.994 745.414 541.966 Q745.414 538.919 743.909 537.17 Q742.424 535.421 739.866 535.421 M747.408 523.516 L747.408 526.976 Q745.978 526.299 744.511 525.942 Q743.063 525.584 741.634 525.584 Q737.872 525.584 735.879 528.124 Q733.904 530.663 733.622 535.797 Q734.731 534.161 736.405 533.296 Q738.079 532.412 740.091 532.412 Q744.323 532.412 746.768 534.988 Q749.232 537.546 749.232 541.966 Q749.232 546.292 746.674 548.906 Q744.116 551.52 739.866 551.52 Q734.995 551.52 732.418 547.796 Q729.841 544.054 729.841 536.963 Q729.841 530.305 733.001 526.356 Q736.161 522.387 741.483 522.387 Q742.913 522.387 744.361 522.669 Q745.828 522.951 747.408 523.516 Z" fill="#000000" fill-rule="evenodd" fill-opacity="1"></path><polyline clip-path="url(#clip722)" style="stroke:#009af9; stroke-linecap:round; stroke-linejoin:round; stroke-width:4; stroke-opacity:1; fill:none" points="809.882,1168.36 809.882,1168.36 809.882,1168.36 809.882,1168.36 809.882,1168.36 809.882,1168.36 809.882,1168.36 809.882,1168.36 809.882,1168.36 809.882,1168.36 809.882,1168.36 809.882,1168.36 809.882,1168.36 809.882,1168.36 809.882,1168.36 809.882,1168.36 809.882,1168.36 809.882,1168.36 809.882,1168.36 809.882,1168.36 809.882,1168.36 809.882,1168.36 809.882,1168.36 809.882,1168.36 809.882,1168.36 809.882,1168.36 809.882,1168.36 809.882,1168.36 809.882,1168.36 809.882,1168.36 809.882,1168.36 809.882,1168.36 809.882,1168.36 809.882,1168.36 809.882,1168.36 809.882,1168.36 809.882,1168.36 809.882,1168.36 809.882,1168.36 809.882,1168.36 809.882,1168.36 809.882,1168.36 809.882,1168.36 809.882,1168.36 809.882,1168.36 809.882,1168.36 809.882,1168.36 809.882,1168.36 809.882,1168.36 809.882,1168.36 809.882,1168.36 809.882,1168.36 809.883,1168.36 809.883,1168.36 809.883,1168.36 809.883,1168.36 809.884,1168.36 809.884,1168.36 809.885,1168.36 809.887,1168.36 809.889,1168.36 809.892,1168.35 809.898,1168.35 809.906,1168.34 809.918,1168.33 809.936,1168.32 809.964,1168.3 810.006,1168.27 810.071,1168.22 810.169,1168.14 810.318,1168.03 810.544,1167.85 810.888,1167.59 811.411,1167.19 812.205,1166.58 813.412,1165.65 815.247,1164.24 818.035,1162.1 822.272,1158.85 828.711,1153.9 838.497,1146.39 853.369,1134.97 875.971,1117.61 910.319,1091.23 962.52,1051.14 1041.85,990.221 1162.41,897.636 1345.63,756.93 1624.08,543.095 "></polyline>
<polyline clip-path="url(#clip722)" style="stroke:#e26f46; stroke-linecap:round; stroke-linejoin:round; stroke-width:4; stroke-opacity:1; fill:none" points="809.882,1168.36 809.882,1168.36 809.882,1168.36 809.882,1168.36 809.882,1168.36 809.882,1168.36 809.882,1168.36 809.882,1168.36 809.882,1168.36 809.882,1168.36 809.882,1168.36 809.882,1168.36 809.882,1168.36 809.882,1168.36 809.882,1168.36 809.882,1168.36 809.882,1168.36 809.882,1168.36 809.882,1168.36 809.882,1168.36 809.882,1168.36 809.882,1168.36 809.882,1168.36 809.882,1168.36 809.882,1168.36 809.882,1168.36 809.882,1168.36 809.882,1168.36 809.882,1168.36 809.882,1168.36 809.882,1168.36 809.882,1168.36 809.882,1168.36 809.882,1168.36 809.882,1168.36 809.882,1168.36 809.882,1168.36 809.882,1168.36 809.882,1168.36 809.882,1168.36 809.882,1168.36 809.882,1168.36 809.882,1168.36 809.882,1168.36 809.882,1168.36 809.882,1168.36 809.882,1168.36 809.882,1168.36 809.882,1168.36 809.882,1168.36 809.882,1168.36 809.883,1168.36 809.883,1168.36 809.883,1168.36 809.883,1168.36 809.883,1168.36 809.884,1168.36 809.885,1168.36 809.886,1168.36 809.888,1168.36 809.891,1168.35 809.895,1168.35 809.902,1168.35 809.913,1168.34 809.928,1168.33 809.952,1168.31 809.989,1168.28 810.044,1168.24 810.128,1168.17 810.256,1168.07 810.45,1167.93 810.745,1167.7 811.194,1167.35 811.875,1166.83 812.911,1166.04 814.485,1164.83 816.877,1162.99 820.513,1160.2 826.038,1155.95 834.434,1149.51 847.194,1139.71 866.587,1124.81 896.058,1102.18 940.847,1067.79 1008.91,1015.52 1112.36,936.076 1269.56,815.35 1508.48,631.877 1871.56,353.048 "></polyline>
<path clip-path="url(#clip720)" d="M396.154 250.328 L828.074 250.328 L828.074 94.8081 L396.154 94.8081  Z" fill="#ffffff" fill-rule="evenodd" fill-opacity="1"></path>
<polyline clip-path="url(#clip720)" style="stroke:#000000; stroke-linecap:round; stroke-linejoin:round; stroke-width:4; stroke-opacity:1; fill:none" points="396.154,250.328 828.074,250.328 828.074,94.8081 396.154,94.8081 396.154,250.328 "></polyline>
<polyline clip-path="url(#clip720)" style="stroke:#009af9; stroke-linecap:round; stroke-linejoin:round; stroke-width:4; stroke-opacity:1; fill:none" points="418.644,146.648 553.582,146.648 "></polyline>
<path clip-path="url(#clip720)" d="M583.479 130.641 L583.479 138.002 L592.252 138.002 L592.252 141.312 L583.479 141.312 L583.479 155.386 Q583.479 158.558 584.335 159.461 Q585.215 160.363 587.877 160.363 L592.252 160.363 L592.252 163.928 L587.877 163.928 Q582.946 163.928 581.071 162.099 Q579.196 160.248 579.196 155.386 L579.196 141.312 L576.071 141.312 L576.071 138.002 L579.196 138.002 L579.196 130.641 L583.479 130.641 Z" fill="#000000" fill-rule="evenodd" fill-opacity="1"></path><path clip-path="url(#clip720)" d="M612.877 141.984 Q612.159 141.567 611.303 141.382 Q610.469 141.174 609.451 141.174 Q605.84 141.174 603.895 143.535 Q601.974 145.873 601.974 150.271 L601.974 163.928 L597.692 163.928 L597.692 138.002 L601.974 138.002 L601.974 142.03 Q603.317 139.669 605.469 138.535 Q607.622 137.377 610.701 137.377 Q611.141 137.377 611.673 137.447 Q612.205 137.493 612.854 137.609 L612.877 141.984 Z" fill="#000000" fill-rule="evenodd" fill-opacity="1"></path><path clip-path="url(#clip720)" d="M616.905 153.697 L616.905 138.002 L621.164 138.002 L621.164 153.535 Q621.164 157.215 622.599 159.067 Q624.034 160.896 626.904 160.896 Q630.354 160.896 632.344 158.697 Q634.358 156.498 634.358 152.701 L634.358 138.002 L638.617 138.002 L638.617 163.928 L634.358 163.928 L634.358 159.947 Q632.807 162.308 630.747 163.465 Q628.71 164.599 626.002 164.599 Q621.534 164.599 619.219 161.822 Q616.905 159.044 616.905 153.697 M627.622 137.377 L627.622 137.377 Z" fill="#000000" fill-rule="evenodd" fill-opacity="1"></path><path clip-path="url(#clip720)" d="M669.566 149.9 L669.566 151.984 L649.983 151.984 Q650.261 156.382 652.622 158.697 Q655.006 160.988 659.242 160.988 Q661.696 160.988 663.988 160.386 Q666.302 159.785 668.571 158.581 L668.571 162.609 Q666.279 163.581 663.872 164.09 Q661.464 164.599 658.988 164.599 Q652.784 164.599 649.15 160.988 Q645.539 157.377 645.539 151.22 Q645.539 144.854 648.965 141.127 Q652.414 137.377 658.247 137.377 Q663.478 137.377 666.511 140.757 Q669.566 144.113 669.566 149.9 M665.307 148.65 Q665.261 145.155 663.339 143.072 Q661.441 140.988 658.293 140.988 Q654.728 140.988 652.576 143.002 Q650.446 145.016 650.122 148.674 L665.307 148.65 Z" fill="#000000" fill-rule="evenodd" fill-opacity="1"></path><path clip-path="url(#clip720)" d="M695.747 160.039 L695.747 173.789 L691.464 173.789 L691.464 138.002 L695.747 138.002 L695.747 141.937 Q697.089 139.623 699.126 138.512 Q701.187 137.377 704.034 137.377 Q708.756 137.377 711.696 141.127 Q714.659 144.877 714.659 150.988 Q714.659 157.099 711.696 160.849 Q708.756 164.599 704.034 164.599 Q701.187 164.599 699.126 163.488 Q697.089 162.354 695.747 160.039 M710.237 150.988 Q710.237 146.289 708.293 143.627 Q706.372 140.942 702.992 140.942 Q699.612 140.942 697.668 143.627 Q695.747 146.289 695.747 150.988 Q695.747 155.687 697.668 158.373 Q699.612 161.035 702.992 161.035 Q706.372 161.035 708.293 158.373 Q710.237 155.687 710.237 150.988 Z" fill="#000000" fill-rule="evenodd" fill-opacity="1"></path><path clip-path="url(#clip720)" d="M733.501 150.896 Q728.339 150.896 726.348 152.076 Q724.358 153.257 724.358 156.104 Q724.358 158.373 725.839 159.715 Q727.344 161.035 729.913 161.035 Q733.455 161.035 735.584 158.535 Q737.737 156.011 737.737 151.845 L737.737 150.896 L733.501 150.896 M741.996 149.137 L741.996 163.928 L737.737 163.928 L737.737 159.993 Q736.279 162.354 734.103 163.488 Q731.927 164.599 728.779 164.599 Q724.797 164.599 722.436 162.377 Q720.098 160.132 720.098 156.382 Q720.098 152.007 723.015 149.785 Q725.955 147.562 731.765 147.562 L737.737 147.562 L737.737 147.146 Q737.737 144.206 735.793 142.609 Q733.872 140.988 730.376 140.988 Q728.154 140.988 726.047 141.521 Q723.941 142.053 721.997 143.118 L721.997 139.183 Q724.335 138.28 726.534 137.84 Q728.733 137.377 730.816 137.377 Q736.441 137.377 739.219 140.294 Q741.996 143.211 741.996 149.137 Z" fill="#000000" fill-rule="evenodd" fill-opacity="1"></path><path clip-path="url(#clip720)" d="M754.983 130.641 L754.983 138.002 L763.756 138.002 L763.756 141.312 L754.983 141.312 L754.983 155.386 Q754.983 158.558 755.839 159.461 Q756.719 160.363 759.381 160.363 L763.756 160.363 L763.756 163.928 L759.381 163.928 Q754.45 163.928 752.575 162.099 Q750.7 160.248 750.7 155.386 L750.7 141.312 L747.575 141.312 L747.575 138.002 L750.7 138.002 L750.7 130.641 L754.983 130.641 Z" fill="#000000" fill-rule="evenodd" fill-opacity="1"></path><path clip-path="url(#clip720)" d="M790.908 148.28 L790.908 163.928 L786.649 163.928 L786.649 148.419 Q786.649 144.738 785.214 142.91 Q783.779 141.081 780.908 141.081 Q777.459 141.081 775.469 143.28 Q773.478 145.479 773.478 149.275 L773.478 163.928 L769.195 163.928 L769.195 127.91 L773.478 127.91 L773.478 142.03 Q775.006 139.692 777.066 138.535 Q779.149 137.377 781.857 137.377 Q786.325 137.377 788.617 140.155 Q790.908 142.91 790.908 148.28 Z" fill="#000000" fill-rule="evenodd" fill-opacity="1"></path><polyline clip-path="url(#clip720)" style="stroke:#e26f46; stroke-linecap:round; stroke-linejoin:round; stroke-width:4; stroke-opacity:1; fill:none" points="418.644,198.488 553.582,198.488 "></polyline>
<path clip-path="url(#clip720)" d="M580.354 211.879 L580.354 225.629 L576.071 225.629 L576.071 189.842 L580.354 189.842 L580.354 193.777 Q581.696 191.463 583.733 190.352 Q585.794 189.217 588.641 189.217 Q593.363 189.217 596.303 192.967 Q599.266 196.717 599.266 202.828 Q599.266 208.939 596.303 212.689 Q593.363 216.439 588.641 216.439 Q585.794 216.439 583.733 215.328 Q581.696 214.194 580.354 211.879 M594.844 202.828 Q594.844 198.129 592.9 195.467 Q590.979 192.782 587.599 192.782 Q584.22 192.782 582.275 195.467 Q580.354 198.129 580.354 202.828 Q580.354 207.527 582.275 210.213 Q584.22 212.875 587.599 212.875 Q590.979 212.875 592.9 210.213 Q594.844 207.527 594.844 202.828 Z" fill="#000000" fill-rule="evenodd" fill-opacity="1"></path><path clip-path="url(#clip720)" d="M621.349 193.824 Q620.631 193.407 619.775 193.222 Q618.942 193.014 617.923 193.014 Q614.312 193.014 612.368 195.375 Q610.446 197.713 610.446 202.111 L610.446 215.768 L606.164 215.768 L606.164 189.842 L610.446 189.842 L610.446 193.87 Q611.789 191.509 613.942 190.375 Q616.094 189.217 619.173 189.217 Q619.613 189.217 620.145 189.287 Q620.678 189.333 621.326 189.449 L621.349 193.824 Z" fill="#000000" fill-rule="evenodd" fill-opacity="1"></path><path clip-path="url(#clip720)" d="M646.951 201.74 L646.951 203.824 L627.367 203.824 Q627.645 208.222 630.006 210.537 Q632.391 212.828 636.627 212.828 Q639.08 212.828 641.372 212.226 Q643.687 211.625 645.955 210.421 L645.955 214.449 Q643.664 215.421 641.256 215.93 Q638.849 216.439 636.372 216.439 Q630.168 216.439 626.534 212.828 Q622.923 209.217 622.923 203.06 Q622.923 196.694 626.349 192.967 Q629.798 189.217 635.631 189.217 Q640.863 189.217 643.895 192.597 Q646.951 195.953 646.951 201.74 M642.691 200.49 Q642.645 196.995 640.724 194.912 Q638.826 192.828 635.678 192.828 Q632.113 192.828 629.96 194.842 Q627.83 196.856 627.506 200.514 L642.691 200.49 Z" fill="#000000" fill-rule="evenodd" fill-opacity="1"></path><path clip-path="url(#clip720)" d="M671.001 193.777 L671.001 179.75 L675.261 179.75 L675.261 215.768 L671.001 215.768 L671.001 211.879 Q669.659 214.194 667.599 215.328 Q665.562 216.439 662.691 216.439 Q657.992 216.439 655.029 212.689 Q652.09 208.939 652.09 202.828 Q652.09 196.717 655.029 192.967 Q657.992 189.217 662.691 189.217 Q665.562 189.217 667.599 190.352 Q669.659 191.463 671.001 193.777 M656.488 202.828 Q656.488 207.527 658.409 210.213 Q660.353 212.875 663.733 212.875 Q667.113 212.875 669.057 210.213 Q671.001 207.527 671.001 202.828 Q671.001 198.129 669.057 195.467 Q667.113 192.782 663.733 192.782 Q660.353 192.782 658.409 195.467 Q656.488 198.129 656.488 202.828 Z" fill="#000000" fill-rule="evenodd" fill-opacity="1"></path><path clip-path="url(#clip720)" d="M684.034 189.842 L688.293 189.842 L688.293 215.768 L684.034 215.768 L684.034 189.842 M684.034 179.75 L688.293 179.75 L688.293 185.143 L684.034 185.143 L684.034 179.75 Z" fill="#000000" fill-rule="evenodd" fill-opacity="1"></path><path clip-path="url(#clip720)" d="M715.862 190.838 L715.862 194.819 Q714.057 193.824 712.228 193.338 Q710.423 192.828 708.571 192.828 Q704.427 192.828 702.136 195.467 Q699.844 198.083 699.844 202.828 Q699.844 207.574 702.136 210.213 Q704.427 212.828 708.571 212.828 Q710.423 212.828 712.228 212.342 Q714.057 211.833 715.862 210.838 L715.862 214.773 Q714.08 215.606 712.159 216.023 Q710.261 216.439 708.108 216.439 Q702.251 216.439 698.802 212.759 Q695.353 209.078 695.353 202.828 Q695.353 196.486 698.825 192.852 Q702.321 189.217 708.386 189.217 Q710.353 189.217 712.228 189.634 Q714.103 190.028 715.862 190.838 Z" fill="#000000" fill-rule="evenodd" fill-opacity="1"></path><path clip-path="url(#clip720)" d="M727.483 182.481 L727.483 189.842 L736.256 189.842 L736.256 193.152 L727.483 193.152 L727.483 207.226 Q727.483 210.398 728.339 211.301 Q729.219 212.203 731.881 212.203 L736.256 212.203 L736.256 215.768 L731.881 215.768 Q726.95 215.768 725.075 213.939 Q723.2 212.088 723.2 207.226 L723.2 193.152 L720.075 193.152 L720.075 189.842 L723.2 189.842 L723.2 182.481 L727.483 182.481 Z" fill="#000000" fill-rule="evenodd" fill-opacity="1"></path><path clip-path="url(#clip720)" d="M741.858 189.842 L746.117 189.842 L746.117 215.768 L741.858 215.768 L741.858 189.842 M741.858 179.75 L746.117 179.75 L746.117 185.143 L741.858 185.143 L741.858 179.75 Z" fill="#000000" fill-rule="evenodd" fill-opacity="1"></path><path clip-path="url(#clip720)" d="M765.075 192.828 Q761.649 192.828 759.658 195.514 Q757.668 198.176 757.668 202.828 Q757.668 207.481 759.635 210.166 Q761.626 212.828 765.075 212.828 Q768.478 212.828 770.469 210.143 Q772.459 207.458 772.459 202.828 Q772.459 198.222 770.469 195.537 Q768.478 192.828 765.075 192.828 M765.075 189.217 Q770.631 189.217 773.802 192.828 Q776.973 196.44 776.973 202.828 Q776.973 209.194 773.802 212.828 Q770.631 216.439 765.075 216.439 Q759.496 216.439 756.325 212.828 Q753.177 209.194 753.177 202.828 Q753.177 196.44 756.325 192.828 Q759.496 189.217 765.075 189.217 Z" fill="#000000" fill-rule="evenodd" fill-opacity="1"></path><path clip-path="url(#clip720)" d="M805.584 200.12 L805.584 215.768 L801.325 215.768 L801.325 200.259 Q801.325 196.578 799.89 194.75 Q798.454 192.921 795.584 192.921 Q792.135 192.921 790.144 195.12 Q788.154 197.319 788.154 201.115 L788.154 215.768 L783.871 215.768 L783.871 189.842 L788.154 189.842 L788.154 193.87 Q789.681 191.532 791.742 190.375 Q793.825 189.217 796.533 189.217 Q801.001 189.217 803.292 191.995 Q805.584 194.75 805.584 200.12 Z" fill="#000000" fill-rule="evenodd" fill-opacity="1"></path></svg>