<svg xmlns="http://www.w3.org/2000/svg" xmlns:xlink="http://www.w3.org/1999/xlink" width="600" height="400" viewBox="0 0 2400 1600">
<defs>
  <clipPath id="clip680">
    <rect x="0" y="0" width="2400" height="1600"></rect>
  </clipPath>
</defs>
<path clip-path="url(#clip680)" d="M0 1600 L2400 1600 L2400 0 L0 0  Z" fill="#ffffff" fill-rule="evenodd" fill-opacity="1"></path>
<defs>
  <clipPath id="clip681">
    <rect x="480" y="0" width="1681" height="1600"></rect>
  </clipPath>
</defs>
<path clip-path="url(#clip680)" d="M170.857 1486.45 L2352.76 1486.45 L2352.76 47.2441 L170.857 47.2441  Z" fill="#ffffff" fill-rule="evenodd" fill-opacity="1"></path>
<defs>
  <clipPath id="clip682">
    <rect x="170" y="47" width="2183" height="1440"></rect>
  </clipPath>
</defs>
<polyline clip-path="url(#clip682)" style="stroke:#000000; stroke-linecap:round; stroke-linejoin:round; stroke-width:2; stroke-opacity:0.1; fill:none" points="211.605,1486.45 211.605,47.2441 "></polyline>
<polyline clip-path="url(#clip682)" style="stroke:#000000; stroke-linecap:round; stroke-linejoin:round; stroke-width:2; stroke-opacity:0.1; fill:none" points="736.706,1486.45 736.706,47.2441 "></polyline>
<polyline clip-path="url(#clip682)" style="stroke:#000000; stroke-linecap:round; stroke-linejoin:round; stroke-width:2; stroke-opacity:0.1; fill:none" points="1261.81,1486.45 1261.81,47.2441 "></polyline>
<polyline clip-path="url(#clip682)" style="stroke:#000000; stroke-linecap:round; stroke-linejoin:round; stroke-width:2; stroke-opacity:0.1; fill:none" points="1786.91,1486.45 1786.91,47.2441 "></polyline>
<polyline clip-path="url(#clip682)" style="stroke:#000000; stroke-linecap:round; stroke-linejoin:round; stroke-width:2; stroke-opacity:0.1; fill:none" points="2312.01,1486.45 2312.01,47.2441 "></polyline>
<polyline clip-path="url(#clip680)" style="stroke:#000000; stroke-linecap:round; stroke-linejoin:round; stroke-width:4; stroke-opacity:1; fill:none" points="170.857,1486.45 2352.76,1486.45 "></polyline>
<polyline clip-path="url(#clip680)" style="stroke:#000000; stroke-linecap:round; stroke-linejoin:round; stroke-width:4; stroke-opacity:1; fill:none" points="211.605,1486.45 211.605,1467.55 "></polyline>
<polyline clip-path="url(#clip680)" style="stroke:#000000; stroke-linecap:round; stroke-linejoin:round; stroke-width:4; stroke-opacity:1; fill:none" points="736.706,1486.45 736.706,1467.55 "></polyline>
<polyline clip-path="url(#clip680)" style="stroke:#000000; stroke-linecap:round; stroke-linejoin:round; stroke-width:4; stroke-opacity:1; fill:none" points="1261.81,1486.45 1261.81,1467.55 "></polyline>
<polyline clip-path="url(#clip680)" style="stroke:#000000; stroke-linecap:round; stroke-linejoin:round; stroke-width:4; stroke-opacity:1; fill:none" points="1786.91,1486.45 1786.91,1467.55 "></polyline>
<polyline clip-path="url(#clip680)" style="stroke:#000000; stroke-linecap:round; stroke-linejoin:round; stroke-width:4; stroke-opacity:1; fill:none" points="2312.01,1486.45 2312.01,1467.55 "></polyline>
<path clip-path="url(#clip680)" d="M211.605 1517.37 Q207.994 1517.37 206.165 1520.93 Q204.36 1524.47 204.36 1531.6 Q204.36 1538.71 206.165 1542.27 Q207.994 1545.82 211.605 1545.82 Q215.239 1545.82 217.045 1542.27 Q218.874 1538.71 218.874 1531.6 Q218.874 1524.47 217.045 1520.93 Q215.239 1517.37 211.605 1517.37 M211.605 1513.66 Q217.415 1513.66 220.471 1518.27 Q223.55 1522.85 223.55 1531.6 Q223.55 1540.33 220.471 1544.94 Q217.415 1549.52 211.605 1549.52 Q205.795 1549.52 202.716 1544.94 Q199.661 1540.33 199.661 1531.6 Q199.661 1522.85 202.716 1518.27 Q205.795 1513.66 211.605 1513.66 Z" fill="#000000" fill-rule="evenodd" fill-opacity="1"></path><path clip-path="url(#clip680)" d="M715.977 1544.91 L732.296 1544.91 L732.296 1548.85 L710.352 1548.85 L710.352 1544.91 Q713.014 1542.16 717.597 1537.53 Q722.204 1532.88 723.384 1531.53 Q725.63 1529.01 726.509 1527.27 Q727.412 1525.51 727.412 1523.82 Q727.412 1521.07 725.468 1519.33 Q723.546 1517.6 720.444 1517.6 Q718.245 1517.6 715.792 1518.36 Q713.361 1519.13 710.583 1520.68 L710.583 1515.95 Q713.407 1514.82 715.861 1514.24 Q718.315 1513.66 720.352 1513.66 Q725.722 1513.66 728.917 1516.35 Q732.111 1519.03 732.111 1523.52 Q732.111 1525.65 731.301 1527.57 Q730.514 1529.47 728.407 1532.07 Q727.829 1532.74 724.727 1535.95 Q721.625 1539.15 715.977 1544.91 Z" fill="#000000" fill-rule="evenodd" fill-opacity="1"></path><path clip-path="url(#clip680)" d="M742.157 1514.29 L760.514 1514.29 L760.514 1518.22 L746.44 1518.22 L746.44 1526.7 Q747.458 1526.35 748.477 1526.19 Q749.495 1526 750.514 1526 Q756.301 1526 759.68 1529.17 Q763.06 1532.34 763.06 1537.76 Q763.06 1543.34 759.588 1546.44 Q756.116 1549.52 749.796 1549.52 Q747.62 1549.52 745.352 1549.15 Q743.106 1548.78 740.699 1548.04 L740.699 1543.34 Q742.782 1544.47 745.005 1545.03 Q747.227 1545.58 749.704 1545.58 Q753.708 1545.58 756.046 1543.48 Q758.384 1541.37 758.384 1537.76 Q758.384 1534.15 756.046 1532.04 Q753.708 1529.94 749.704 1529.94 Q747.829 1529.94 745.954 1530.35 Q744.102 1530.77 742.157 1531.65 L742.157 1514.29 Z" fill="#000000" fill-rule="evenodd" fill-opacity="1"></path><path clip-path="url(#clip680)" d="M1236.51 1514.29 L1254.86 1514.29 L1254.86 1518.22 L1240.79 1518.22 L1240.79 1526.7 Q1241.81 1526.35 1242.83 1526.19 Q1243.84 1526 1244.86 1526 Q1250.65 1526 1254.03 1529.17 Q1257.41 1532.34 1257.41 1537.76 Q1257.41 1543.34 1253.94 1546.44 Q1250.46 1549.52 1244.14 1549.52 Q1241.97 1549.52 1239.7 1549.15 Q1237.45 1548.78 1235.05 1548.04 L1235.05 1543.34 Q1237.13 1544.47 1239.35 1545.03 Q1241.58 1545.58 1244.05 1545.58 Q1248.06 1545.58 1250.39 1543.48 Q1252.73 1541.37 1252.73 1537.76 Q1252.73 1534.15 1250.39 1532.04 Q1248.06 1529.94 1244.05 1529.94 Q1242.18 1529.94 1240.3 1530.35 Q1238.45 1530.77 1236.51 1531.65 L1236.51 1514.29 Z" fill="#000000" fill-rule="evenodd" fill-opacity="1"></path><path clip-path="url(#clip680)" d="M1276.62 1517.37 Q1273.01 1517.37 1271.18 1520.93 Q1269.38 1524.47 1269.38 1531.6 Q1269.38 1538.71 1271.18 1542.27 Q1273.01 1545.82 1276.62 1545.82 Q1280.26 1545.82 1282.06 1542.27 Q1283.89 1538.71 1283.89 1531.6 Q1283.89 1524.47 1282.06 1520.93 Q1280.26 1517.37 1276.62 1517.37 M1276.62 1513.66 Q1282.43 1513.66 1285.49 1518.27 Q1288.57 1522.85 1288.57 1531.6 Q1288.57 1540.33 1285.49 1544.94 Q1282.43 1549.52 1276.62 1549.52 Q1270.81 1549.52 1267.73 1544.94 Q1264.68 1540.33 1264.68 1531.6 Q1264.68 1522.85 1267.73 1518.27 Q1270.81 1513.66 1276.62 1513.66 Z" fill="#000000" fill-rule="evenodd" fill-opacity="1"></path><path clip-path="url(#clip680)" d="M1760.76 1514.29 L1782.98 1514.29 L1782.98 1516.28 L1770.44 1548.85 L1765.55 1548.85 L1777.36 1518.22 L1760.76 1518.22 L1760.76 1514.29 Z" fill="#000000" fill-rule="evenodd" fill-opacity="1"></path><path clip-path="url(#clip680)" d="M1792.15 1514.29 L1810.51 1514.29 L1810.51 1518.22 L1796.43 1518.22 L1796.43 1526.7 Q1797.45 1526.35 1798.47 1526.19 Q1799.49 1526 1800.51 1526 Q1806.29 1526 1809.67 1529.17 Q1813.05 1532.34 1813.05 1537.76 Q1813.05 1543.34 1809.58 1546.44 Q1806.11 1549.52 1799.79 1549.52 Q1797.61 1549.52 1795.34 1549.15 Q1793.1 1548.78 1790.69 1548.04 L1790.69 1543.34 Q1792.78 1544.47 1795 1545.03 Q1797.22 1545.58 1799.7 1545.58 Q1803.7 1545.58 1806.04 1543.48 Q1808.38 1541.37 1808.38 1537.76 Q1808.38 1534.15 1806.04 1532.04 Q1803.7 1529.94 1799.7 1529.94 Q1797.82 1529.94 1795.95 1530.35 Q1794.09 1530.77 1792.15 1531.65 L1792.15 1514.29 Z" fill="#000000" fill-rule="evenodd" fill-opacity="1"></path><path clip-path="url(#clip680)" d="M2271.61 1544.91 L2279.25 1544.91 L2279.25 1518.55 L2270.94 1520.21 L2270.94 1515.95 L2279.21 1514.29 L2283.88 1514.29 L2283.88 1544.91 L2291.52 1544.91 L2291.52 1548.85 L2271.61 1548.85 L2271.61 1544.91 Z" fill="#000000" fill-rule="evenodd" fill-opacity="1"></path><path clip-path="url(#clip680)" d="M2310.97 1517.37 Q2307.36 1517.37 2305.53 1520.93 Q2303.72 1524.47 2303.72 1531.6 Q2303.72 1538.71 2305.53 1542.27 Q2307.36 1545.82 2310.97 1545.82 Q2314.6 1545.82 2316.41 1542.27 Q2318.23 1538.71 2318.23 1531.6 Q2318.23 1524.47 2316.41 1520.93 Q2314.6 1517.37 2310.97 1517.37 M2310.97 1513.66 Q2316.78 1513.66 2319.83 1518.27 Q2322.91 1522.85 2322.91 1531.6 Q2322.91 1540.33 2319.83 1544.94 Q2316.78 1549.52 2310.97 1549.52 Q2305.16 1549.52 2302.08 1544.94 Q2299.02 1540.33 2299.02 1531.6 Q2299.02 1522.85 2302.08 1518.27 Q2305.16 1513.66 2310.97 1513.66 Z" fill="#000000" fill-rule="evenodd" fill-opacity="1"></path><path clip-path="url(#clip680)" d="M2341.13 1517.37 Q2337.52 1517.37 2335.69 1520.93 Q2333.88 1524.47 2333.88 1531.6 Q2333.88 1538.71 2335.69 1542.27 Q2337.52 1545.82 2341.13 1545.82 Q2344.76 1545.82 2346.57 1542.27 Q2348.4 1538.71 2348.4 1531.6 Q2348.4 1524.47 2346.57 1520.93 Q2344.76 1517.37 2341.13 1517.37 M2341.13 1513.66 Q2346.94 1513.66 2349.99 1518.27 Q2353.07 1522.85 2353.07 1531.6 Q2353.07 1540.33 2349.99 1544.94 Q2346.94 1549.52 2341.13 1549.52 Q2335.32 1549.52 2332.24 1544.94 Q2329.18 1540.33 2329.18 1531.6 Q2329.18 1522.85 2332.24 1518.27 Q2335.32 1513.66 2341.13 1513.66 Z" fill="#000000" fill-rule="evenodd" fill-opacity="1"></path><polyline clip-path="url(#clip682)" style="stroke:#000000; stroke-linecap:round; stroke-linejoin:round; stroke-width:2; stroke-opacity:0.1; fill:none" points="170.857,1445.72 2352.76,1445.72 "></polyline>
<polyline clip-path="url(#clip682)" style="stroke:#000000; stroke-linecap:round; stroke-linejoin:round; stroke-width:2; stroke-opacity:0.1; fill:none" points="170.857,1183.08 2352.76,1183.08 "></polyline>
<polyline clip-path="url(#clip682)" style="stroke:#000000; stroke-linecap:round; stroke-linejoin:round; stroke-width:2; stroke-opacity:0.1; fill:none" points="170.857,920.453 2352.76,920.453 "></polyline>
<polyline clip-path="url(#clip682)" style="stroke:#000000; stroke-linecap:round; stroke-linejoin:round; stroke-width:2; stroke-opacity:0.1; fill:none" points="170.857,657.822 2352.76,657.822 "></polyline>
<polyline clip-path="url(#clip682)" style="stroke:#000000; stroke-linecap:round; stroke-linejoin:round; stroke-width:2; stroke-opacity:0.1; fill:none" points="170.857,395.191 2352.76,395.191 "></polyline>
<polyline clip-path="url(#clip682)" style="stroke:#000000; stroke-linecap:round; stroke-linejoin:round; stroke-width:2; stroke-opacity:0.1; fill:none" points="170.857,132.56 2352.76,132.56 "></polyline>
<polyline clip-path="url(#clip680)" style="stroke:#000000; stroke-linecap:round; stroke-linejoin:round; stroke-width:4; stroke-opacity:1; fill:none" points="170.857,1486.45 170.857,47.2441 "></polyline>
<polyline clip-path="url(#clip680)" style="stroke:#000000; stroke-linecap:round; stroke-linejoin:round; stroke-width:4; stroke-opacity:1; fill:none" points="170.857,1445.72 189.755,1445.72 "></polyline>
<polyline clip-path="url(#clip680)" style="stroke:#000000; stroke-linecap:round; stroke-linejoin:round; stroke-width:4; stroke-opacity:1; fill:none" points="170.857,1183.08 189.755,1183.08 "></polyline>
<polyline clip-path="url(#clip680)" style="stroke:#000000; stroke-linecap:round; stroke-linejoin:round; stroke-width:4; stroke-opacity:1; fill:none" points="170.857,920.453 189.755,920.453 "></polyline>
<polyline clip-path="url(#clip680)" style="stroke:#000000; stroke-linecap:round; stroke-linejoin:round; stroke-width:4; stroke-opacity:1; fill:none" points="170.857,657.822 189.755,657.822 "></polyline>
<polyline clip-path="url(#clip680)" style="stroke:#000000; stroke-linecap:round; stroke-linejoin:round; stroke-width:4; stroke-opacity:1; fill:none" points="170.857,395.191 189.755,395.191 "></polyline>
<polyline clip-path="url(#clip680)" style="stroke:#000000; stroke-linecap:round; stroke-linejoin:round; stroke-width:4; stroke-opacity:1; fill:none" points="170.857,132.56 189.755,132.56 "></polyline>
<path clip-path="url(#clip680)" d="M122.913 1431.51 Q119.302 1431.51 117.473 1435.08 Q115.668 1438.62 115.668 1445.75 Q115.668 1452.86 117.473 1456.42 Q119.302 1459.96 122.913 1459.96 Q126.547 1459.96 128.353 1456.42 Q130.182 1452.86 130.182 1445.75 Q130.182 1438.62 128.353 1435.08 Q126.547 1431.51 122.913 1431.51 M122.913 1427.81 Q128.723 1427.81 131.779 1432.42 Q134.857 1437 134.857 1445.75 Q134.857 1454.48 131.779 1459.08 Q128.723 1463.67 122.913 1463.67 Q117.103 1463.67 114.024 1459.08 Q110.969 1454.48 110.969 1445.75 Q110.969 1437 114.024 1432.42 Q117.103 1427.81 122.913 1427.81 Z" fill="#000000" fill-rule="evenodd" fill-opacity="1"></path><path clip-path="url(#clip680)" d="M82.7975 1165.8 L101.154 1165.8 L101.154 1169.74 L87.0799 1169.74 L87.0799 1178.21 Q88.0984 1177.86 89.1169 1177.7 Q90.1354 1177.52 91.1539 1177.52 Q96.941 1177.52 100.321 1180.69 Q103.7 1183.86 103.7 1189.28 Q103.7 1194.86 100.228 1197.96 Q96.7558 1201.04 90.4364 1201.04 Q88.2604 1201.04 85.9919 1200.67 Q83.7466 1200.3 81.3392 1199.55 L81.3392 1194.86 Q83.4225 1195.99 85.6447 1196.55 Q87.8669 1197.1 90.3438 1197.1 Q94.3484 1197.1 96.6863 1194.99 Q99.0243 1192.89 99.0243 1189.28 Q99.0243 1185.67 96.6863 1183.56 Q94.3484 1181.45 90.3438 1181.45 Q88.4688 1181.45 86.5938 1181.87 Q84.7419 1182.29 82.7975 1183.17 L82.7975 1165.8 Z" fill="#000000" fill-rule="evenodd" fill-opacity="1"></path><path clip-path="url(#clip680)" d="M122.913 1168.88 Q119.302 1168.88 117.473 1172.45 Q115.668 1175.99 115.668 1183.12 Q115.668 1190.23 117.473 1193.79 Q119.302 1197.33 122.913 1197.33 Q126.547 1197.33 128.353 1193.79 Q130.182 1190.23 130.182 1183.12 Q130.182 1175.99 128.353 1172.45 Q126.547 1168.88 122.913 1168.88 M122.913 1165.18 Q128.723 1165.18 131.779 1169.79 Q134.857 1174.37 134.857 1183.12 Q134.857 1191.85 131.779 1196.45 Q128.723 1201.04 122.913 1201.04 Q117.103 1201.04 114.024 1196.45 Q110.969 1191.85 110.969 1183.12 Q110.969 1174.37 114.024 1169.79 Q117.103 1165.18 122.913 1165.18 Z" fill="#000000" fill-rule="evenodd" fill-opacity="1"></path><path clip-path="url(#clip680)" d="M53.3995 933.798 L61.0384 933.798 L61.0384 907.433 L52.7282 909.099 L52.7282 904.84 L60.9921 903.173 L65.668 903.173 L65.668 933.798 L73.3068 933.798 L73.3068 937.733 L53.3995 937.733 L53.3995 933.798 Z" fill="#000000" fill-rule="evenodd" fill-opacity="1"></path><path clip-path="url(#clip680)" d="M92.7512 906.252 Q89.1401 906.252 87.3114 909.817 Q85.5058 913.359 85.5058 920.488 Q85.5058 927.595 87.3114 931.159 Q89.1401 934.701 92.7512 934.701 Q96.3854 934.701 98.1909 931.159 Q100.02 927.595 100.02 920.488 Q100.02 913.359 98.1909 909.817 Q96.3854 906.252 92.7512 906.252 M92.7512 902.548 Q98.5613 902.548 101.617 907.155 Q104.696 911.738 104.696 920.488 Q104.696 929.215 101.617 933.821 Q98.5613 938.405 92.7512 938.405 Q86.941 938.405 83.8623 933.821 Q80.8068 929.215 80.8068 920.488 Q80.8068 911.738 83.8623 907.155 Q86.941 902.548 92.7512 902.548 Z" fill="#000000" fill-rule="evenodd" fill-opacity="1"></path><path clip-path="url(#clip680)" d="M122.913 906.252 Q119.302 906.252 117.473 909.817 Q115.668 913.359 115.668 920.488 Q115.668 927.595 117.473 931.159 Q119.302 934.701 122.913 934.701 Q126.547 934.701 128.353 931.159 Q130.182 927.595 130.182 920.488 Q130.182 913.359 128.353 909.817 Q126.547 906.252 122.913 906.252 M122.913 902.548 Q128.723 902.548 131.779 907.155 Q134.857 911.738 134.857 920.488 Q134.857 929.215 131.779 933.821 Q128.723 938.405 122.913 938.405 Q117.103 938.405 114.024 933.821 Q110.969 929.215 110.969 920.488 Q110.969 911.738 114.024 907.155 Q117.103 902.548 122.913 902.548 Z" fill="#000000" fill-rule="evenodd" fill-opacity="1"></path><path clip-path="url(#clip680)" d="M53.3995 671.167 L61.0384 671.167 L61.0384 644.802 L52.7282 646.468 L52.7282 642.209 L60.9921 640.542 L65.668 640.542 L65.668 671.167 L73.3068 671.167 L73.3068 675.102 L53.3995 675.102 L53.3995 671.167 Z" fill="#000000" fill-rule="evenodd" fill-opacity="1"></path><path clip-path="url(#clip680)" d="M82.7975 640.542 L101.154 640.542 L101.154 644.477 L87.0799 644.477 L87.0799 652.95 Q88.0984 652.602 89.1169 652.44 Q90.1354 652.255 91.1539 652.255 Q96.941 652.255 100.321 655.426 Q103.7 658.598 103.7 664.014 Q103.7 669.593 100.228 672.695 Q96.7558 675.774 90.4364 675.774 Q88.2604 675.774 85.9919 675.403 Q83.7466 675.033 81.3392 674.292 L81.3392 669.593 Q83.4225 670.727 85.6447 671.283 Q87.8669 671.838 90.3438 671.838 Q94.3484 671.838 96.6863 669.732 Q99.0243 667.626 99.0243 664.014 Q99.0243 660.403 96.6863 658.297 Q94.3484 656.19 90.3438 656.19 Q88.4688 656.19 86.5938 656.607 Q84.7419 657.024 82.7975 657.903 L82.7975 640.542 Z" fill="#000000" fill-rule="evenodd" fill-opacity="1"></path><path clip-path="url(#clip680)" d="M122.913 643.621 Q119.302 643.621 117.473 647.186 Q115.668 650.727 115.668 657.857 Q115.668 664.963 117.473 668.528 Q119.302 672.07 122.913 672.07 Q126.547 672.07 128.353 668.528 Q130.182 664.963 130.182 657.857 Q130.182 650.727 128.353 647.186 Q126.547 643.621 122.913 643.621 M122.913 639.917 Q128.723 639.917 131.779 644.524 Q134.857 649.107 134.857 657.857 Q134.857 666.584 131.779 671.19 Q128.723 675.774 122.913 675.774 Q117.103 675.774 114.024 671.19 Q110.969 666.584 110.969 657.857 Q110.969 649.107 114.024 644.524 Q117.103 639.917 122.913 639.917 Z" fill="#000000" fill-rule="evenodd" fill-opacity="1"></path><path clip-path="url(#clip680)" d="M56.6171 408.536 L72.9365 408.536 L72.9365 412.471 L50.9921 412.471 L50.9921 408.536 Q53.6541 405.781 58.2375 401.152 Q62.8439 396.499 64.0245 395.156 Q66.2698 392.633 67.1494 390.897 Q68.0522 389.138 68.0522 387.448 Q68.0522 384.694 66.1078 382.957 Q64.1865 381.221 61.0847 381.221 Q58.8856 381.221 56.4319 381.985 Q54.0014 382.749 51.2236 384.3 L51.2236 379.578 Q54.0477 378.444 56.5014 377.865 Q58.955 377.286 60.9921 377.286 Q66.3624 377.286 69.5568 379.971 Q72.7513 382.657 72.7513 387.147 Q72.7513 389.277 71.9411 391.198 Q71.1541 393.096 69.0476 395.689 Q68.4689 396.36 65.367 399.578 Q62.2652 402.772 56.6171 408.536 Z" fill="#000000" fill-rule="evenodd" fill-opacity="1"></path><path clip-path="url(#clip680)" d="M92.7512 380.99 Q89.1401 380.99 87.3114 384.555 Q85.5058 388.096 85.5058 395.226 Q85.5058 402.332 87.3114 405.897 Q89.1401 409.439 92.7512 409.439 Q96.3854 409.439 98.1909 405.897 Q100.02 402.332 100.02 395.226 Q100.02 388.096 98.1909 384.555 Q96.3854 380.99 92.7512 380.99 M92.7512 377.286 Q98.5613 377.286 101.617 381.893 Q104.696 386.476 104.696 395.226 Q104.696 403.953 101.617 408.559 Q98.5613 413.142 92.7512 413.142 Q86.941 413.142 83.8623 408.559 Q80.8068 403.953 80.8068 395.226 Q80.8068 386.476 83.8623 381.893 Q86.941 377.286 92.7512 377.286 Z" fill="#000000" fill-rule="evenodd" fill-opacity="1"></path><path clip-path="url(#clip680)" d="M122.913 380.99 Q119.302 380.99 117.473 384.555 Q115.668 388.096 115.668 395.226 Q115.668 402.332 117.473 405.897 Q119.302 409.439 122.913 409.439 Q126.547 409.439 128.353 405.897 Q130.182 402.332 130.182 395.226 Q130.182 388.096 128.353 384.555 Q126.547 380.99 122.913 380.99 M122.913 377.286 Q128.723 377.286 131.779 381.893 Q134.857 386.476 134.857 395.226 Q134.857 403.953 131.779 408.559 Q128.723 413.142 122.913 413.142 Q117.103 413.142 114.024 408.559 Q110.969 403.953 110.969 395.226 Q110.969 386.476 114.024 381.893 Q117.103 377.286 122.913 377.286 Z" fill="#000000" fill-rule="evenodd" fill-opacity="1"></path><path clip-path="url(#clip680)" d="M56.6171 145.905 L72.9365 145.905 L72.9365 149.84 L50.9921 149.84 L50.9921 145.905 Q53.6541 143.15 58.2375 138.521 Q62.8439 133.868 64.0245 132.525 Q66.2698 130.002 67.1494 128.266 Q68.0522 126.507 68.0522 124.817 Q68.0522 122.062 66.1078 120.326 Q64.1865 118.59 61.0847 118.59 Q58.8856 118.59 56.4319 119.354 Q54.0014 120.118 51.2236 121.669 L51.2236 116.947 Q54.0477 115.812 56.5014 115.234 Q58.955 114.655 60.9921 114.655 Q66.3624 114.655 69.5568 117.34 Q72.7513 120.025 72.7513 124.516 Q72.7513 126.646 71.9411 128.567 Q71.1541 130.465 69.0476 133.058 Q68.4689 133.729 65.367 136.947 Q62.2652 140.141 56.6171 145.905 Z" fill="#000000" fill-rule="evenodd" fill-opacity="1"></path><path clip-path="url(#clip680)" d="M82.7975 115.28 L101.154 115.28 L101.154 119.215 L87.0799 119.215 L87.0799 127.687 Q88.0984 127.34 89.1169 127.178 Q90.1354 126.993 91.1539 126.993 Q96.941 126.993 100.321 130.164 Q103.7 133.336 103.7 138.752 Q103.7 144.331 100.228 147.433 Q96.7558 150.511 90.4364 150.511 Q88.2604 150.511 85.9919 150.141 Q83.7466 149.771 81.3392 149.03 L81.3392 144.331 Q83.4225 145.465 85.6447 146.021 Q87.8669 146.576 90.3438 146.576 Q94.3484 146.576 96.6863 144.47 Q99.0243 142.363 99.0243 138.752 Q99.0243 135.141 96.6863 133.035 Q94.3484 130.928 90.3438 130.928 Q88.4688 130.928 86.5938 131.345 Q84.7419 131.761 82.7975 132.641 L82.7975 115.28 Z" fill="#000000" fill-rule="evenodd" fill-opacity="1"></path><path clip-path="url(#clip680)" d="M122.913 118.359 Q119.302 118.359 117.473 121.924 Q115.668 125.465 115.668 132.595 Q115.668 139.701 117.473 143.266 Q119.302 146.808 122.913 146.808 Q126.547 146.808 128.353 143.266 Q130.182 139.701 130.182 132.595 Q130.182 125.465 128.353 121.924 Q126.547 118.359 122.913 118.359 M122.913 114.655 Q128.723 114.655 131.779 119.262 Q134.857 123.845 134.857 132.595 Q134.857 141.322 131.779 145.928 Q128.723 150.511 122.913 150.511 Q117.103 150.511 114.024 145.928 Q110.969 141.322 110.969 132.595 Q110.969 123.845 114.024 119.262 Q117.103 114.655 122.913 114.655 Z" fill="#000000" fill-rule="evenodd" fill-opacity="1"></path><polyline clip-path="url(#clip682)" style="stroke:#009af9; stroke-linecap:round; stroke-linejoin:round; stroke-width:4; stroke-opacity:1; fill:none" points="232.609,1433.3 253.613,1429.74 274.617,1437 295.621,1439.09 316.625,1432.52 337.629,1427.78 358.633,1421.43 379.637,1429.53 400.641,1413.01 421.646,1416.45 442.65,1416.08 463.654,1421.1 484.658,1425.45 505.662,1417.28 526.666,1413.76 547.67,1420.75 568.674,1426.64 589.678,1429.41 610.682,1433.81 631.686,1438.83 652.69,1436.96 673.694,1429.05 694.698,1436.6 715.702,1435.41 736.706,1436.43 757.71,1427.48 778.714,1424.69 799.718,1427.38 820.722,1424.4 841.726,1418.88 862.73,1425.31 883.734,1431.19 904.738,1436.1 925.742,1441.42 946.746,1432.77 967.75,1436.32 988.754,1435.7 1009.76,1431.92 1030.76,1430.43 1051.77,1432.9 1072.77,1432.84 1093.77,1430.46 1114.78,1428.5 1135.78,1436.92 1156.79,1443.28 1177.79,1443.26 1198.79,1436.98 1219.8,1438 1240.8,1438.72 1261.81,1437.41 1282.81,1425.93 1303.81,1425.49 1324.82,1415.56 1345.82,1411.94 1366.83,1411.79 1387.83,1412.32 1408.83,1416.19 1429.84,1416.92 1450.84,1414.78 1471.85,1422.02 1492.85,1419.83 1513.86,1419.46 1534.86,1416.07 1555.86,1417.81 1576.87,1416.95 1597.87,1421.43 1618.88,1424.96 1639.88,1428.16 1660.88,1426.32 1681.89,1435.5 1702.89,1432.24 1723.9,1421.61 1744.9,1433.94 1765.9,1434.6 1786.91,1426.92 1807.91,1434.28 1828.92,1440.29 1849.92,1437.37 1870.92,1433.84 1891.93,1435.87 1912.93,1440.07 1933.94,1438.11 1954.94,1427.9 1975.94,1433.81 1996.95,1434.81 2017.95,1438.29 2038.96,1419.98 2059.96,1403.69 2080.96,1360.21 2101.97,1361.02 2122.97,1398.73 2143.98,1256.62 2164.98,1096.66 2185.98,1099.2 2206.99,87.9763 2227.99,694.022 2249,101.044 2270,1445.72 2291,1109.55 "></polyline>
<path clip-path="url(#clip680)" d="M243.587 198.898 L514.207 198.898 L514.207 95.2176 L243.587 95.2176  Z" fill="#ffffff" fill-rule="evenodd" fill-opacity="1"></path>
<polyline clip-path="url(#clip680)" style="stroke:#000000; stroke-linecap:round; stroke-linejoin:round; stroke-width:4; stroke-opacity:1; fill:none" points="243.587,198.898 514.207,198.898 514.207,95.2176 243.587,95.2176 243.587,198.898 "></polyline>
<polyline clip-path="url(#clip680)" style="stroke:#009af9; stroke-linecap:round; stroke-linejoin:round; stroke-width:4; stroke-opacity:1; fill:none" points="267.831,147.058 413.291,147.058 "></polyline>
<path clip-path="url(#clip680)" d="M451.376 166.745 Q449.571 171.375 447.858 172.787 Q446.145 174.199 443.275 174.199 L439.872 174.199 L439.872 170.634 L442.372 170.634 Q444.131 170.634 445.103 169.8 Q446.076 168.967 447.256 165.865 L448.02 163.921 L437.534 138.412 L442.048 138.412 L450.15 158.689 L458.251 138.412 L462.765 138.412 L451.376 166.745 Z" fill="#000000" fill-rule="evenodd" fill-opacity="1"></path><path clip-path="url(#clip680)" d="M470.057 160.402 L477.696 160.402 L477.696 134.037 L469.386 135.703 L469.386 131.444 L477.649 129.778 L482.325 129.778 L482.325 160.402 L489.964 160.402 L489.964 164.338 L470.057 164.338 L470.057 160.402 Z" fill="#000000" fill-rule="evenodd" fill-opacity="1"></path></svg>